<svg width="38" height="38" viewBox="0 0 38 38" fill="none" xmlns="http://www.w3.org/2000/svg">
<rect width="38" height="38" rx="5" fill="white" fill-opacity="0.2"/>
<rect x="0.4" y="0.4" width="37.2" height="37.2" rx="4.6" stroke="#202020" stroke-opacity="0.7" stroke-width="0.8"/>
<path d="M14.8443 26.3383C14.1723 25.1331 13.8169 23.6558 13.8169 22.0563C13.8169 19.3681 16.144 17.1799 18.9987 17.1799C21.859 17.1799 24.1805 19.3682 24.1805 22.0563C24.1805 22.3617 24.4305 22.6117 24.7359 22.6117C25.0414 22.6117 25.2913 22.3617 25.2913 22.0563C25.2913 18.7516 22.4699 16.0691 18.9988 16.0691C15.5276 16.0691 12.7061 18.7572 12.7061 22.0563C12.7061 23.8446 13.1115 25.5163 13.878 26.8826C14.6277 28.2211 15.1498 28.8376 16.1106 29.8095C16.2217 29.9206 16.3606 29.9761 16.5049 29.9761C16.6438 29.9761 16.7882 29.9262 16.8882 29.8095C17.1103 29.5985 17.1103 29.243 16.8937 29.0264C16.0384 28.1656 15.5608 27.6158 14.8443 26.3383Z" fill="#323232" stroke="#323232" stroke-width="0.261566"/>
<path d="M12.8236 10.677C14.7286 9.63838 16.8058 9.11077 19.0107 9.11077C21.2212 9.11077 23.0706 9.58287 25.1978 10.6826C25.2811 10.7214 25.3644 10.7436 25.4533 10.7436V10.7436C25.6533 10.7436 25.8476 10.6326 25.9476 10.4437C26.0865 10.1716 25.9809 9.8328 25.7088 9.69393C23.4427 8.52209 21.3767 8 19.0107 8C16.6225 8 14.3621 8.57207 12.2904 9.6995C12.0183 9.84946 11.9239 10.1827 12.0682 10.4549C12.2182 10.727 12.5514 10.8214 12.8236 10.677Z" fill="#323232" stroke="#323232" stroke-width="0.261566"/>
<path d="M18.9603 13.3655C15.378 13.3655 12.1012 15.3705 10.6183 18.4696C10.1129 19.5193 9.85742 20.73 9.85742 22.0629C9.85742 23.5625 10.124 24.9954 10.6683 26.4561C10.7793 26.7449 11.0959 26.8893 11.3847 26.7838C11.6736 26.6727 11.8179 26.3561 11.7124 26.0673C11.0514 24.2956 10.9737 22.9294 10.9737 22.0629C10.9737 20.8966 11.1903 19.8469 11.6235 18.9472C12.9231 16.2257 15.8056 14.4707 18.9658 14.4707C23.4034 14.4707 27.0135 17.8753 27.0135 22.0629C27.0135 23.257 25.9749 24.2234 24.703 24.2234C23.4312 24.2234 22.3926 23.2515 22.3926 22.0629C22.3926 20.2579 20.8597 18.7917 18.9714 18.7917C17.083 18.7917 15.5501 20.2579 15.5501 22.0629C15.5501 24.2567 16.4055 26.3173 17.955 27.8613C19.1547 29.0553 20.3099 29.7107 22.0816 30.1939C22.126 30.2106 22.176 30.2161 22.226 30.2161C22.4703 30.2161 22.6925 30.0551 22.7591 29.8107C22.8424 29.5163 22.6647 29.2109 22.3703 29.1276C20.8041 28.6999 19.7822 28.1223 18.7325 27.0782C17.394 25.7452 16.6553 23.9624 16.6553 22.0685C16.6553 20.8744 17.6939 19.9081 18.9658 19.9081C20.2376 19.9081 21.2762 20.88 21.2762 22.0685C21.2762 23.8736 22.8146 25.3398 24.6974 25.3398C26.5802 25.3398 28.1187 23.8736 28.1187 22.0685C28.1187 17.2699 24.0088 13.3655 18.9603 13.3655Z" fill="#323232" stroke="#323232" stroke-width="0.261566"/>
<path d="M28.8962 15.6637C27.7909 14.1197 26.3913 12.9089 24.7307 12.0537C21.2317 10.2542 16.7664 10.2598 13.273 12.0647C11.6068 12.9256 10.2016 14.1475 9.10193 15.7026C8.92422 15.9525 8.98529 16.2968 9.23522 16.4746C9.33519 16.5413 9.44625 16.5746 9.55737 16.5746C9.72956 16.5746 9.90169 16.4968 10.0128 16.3469C11.0069 14.9362 12.2788 13.831 13.7839 13.0534C16.9664 11.4095 21.0374 11.4039 24.2253 13.0423C25.7249 13.8088 26.9912 14.9085 27.9909 16.308C28.1686 16.558 28.5185 16.6135 28.7684 16.4358C29.0184 16.258 29.0739 15.9136 28.8962 15.6637Z" fill="#323232" stroke="#323232" stroke-width="0.261566"/>
<path d="M25.6252 26.7058C25.1809 26.7835 24.731 26.8114 24.4644 26.8114C23.3537 26.8114 22.4317 26.5503 21.6486 26.0172C20.299 25.1008 19.4936 23.6234 19.4936 22.0627C19.4936 21.7573 19.2437 21.5073 18.9382 21.5073C18.6327 21.5073 18.3828 21.7573 18.3828 22.0627C18.3828 23.9955 19.3714 25.8172 21.021 26.9391C21.9818 27.5889 23.1426 27.9221 24.4644 27.9221C24.6199 27.9221 25.1697 27.9166 25.8196 27.7999C26.1195 27.7444 26.325 27.4556 26.2694 27.1557C26.2139 26.8558 25.9251 26.6503 25.6252 26.7058Z" fill="#537BFB" stroke="#537BFB" stroke-width="0.261566"/>
</svg>
