<svg width="38" height="38" viewBox="0 0 38 38" fill="none" xmlns="http://www.w3.org/2000/svg">
<rect width="38" height="38" rx="5" fill="white" fill-opacity="0.2"/>
<rect x="0.4" y="0.4" width="37.2" height="37.2" rx="4.6" stroke="#202020" stroke-opacity="0.7" stroke-width="0.8"/>
<path fill-rule="evenodd" clip-rule="evenodd" d="M30 25.5957V23.2373C30 22.9428 29.7613 22.7041 29.4668 22.7041C29.1723 22.7041 28.9336 22.9428 28.9336 23.2373V25.5957C28.9336 26.8848 27.8848 27.9336 26.5957 27.9336H24.2373C23.9428 27.9336 23.7041 28.1723 23.7041 28.4668C23.7041 28.7613 23.9428 29 24.2373 29H26.5957C28.4728 29 30 27.4728 30 25.5957M14.7627 27.9336H12.4043C11.1152 27.9336 10.0664 26.8848 10.0664 25.5957V23.2373C10.0664 22.9428 9.82767 22.7041 9.5332 22.7041C9.23873 22.7041 9 22.9428 9 23.2373V25.5957C9 27.4728 10.5272 29 12.4043 29H14.7627C15.0572 29 15.2959 28.7613 15.2959 28.4668C15.2959 28.1723 15.0572 27.9336 14.7627 27.9336ZM10.0664 13.7627V11.4043C10.0664 10.1152 11.1152 9.06641 12.4043 9.06641H14.7627C15.0572 9.06641 15.2959 8.82767 15.2959 8.5332C15.2959 8.23873 15.0572 8 14.7627 8H12.4043C10.5272 8 9 9.52716 9 11.4043V13.7627C9 14.0572 9.23873 14.2959 9.5332 14.2959C9.82767 14.2959 10.0664 14.0572 10.0664 13.7627M30 13.7627V11.4043C30 9.52716 28.4728 8 26.5957 8H24.2373C23.9428 8 23.7041 8.23873 23.7041 8.5332C23.7041 8.82767 23.9428 9.06641 24.2373 9.06641H26.5957C27.8848 9.06641 28.9336 10.1152 28.9336 11.4043V13.7627C28.9336 14.0572 29.1723 14.2959 29.4668 14.2959C29.7613 14.2959 30 14.0572 30 13.7627M23.1801 23.521C23.4047 23.3135 23.4186 22.9632 23.2111 22.7386C23.0036 22.5139 22.6533 22.5 22.4286 22.7075C21.6293 23.4459 20.5894 23.8525 19.5004 23.8525C18.4114 23.8525 17.3714 23.4459 16.5721 22.7075C16.3474 22.5 15.9972 22.5139 15.7896 22.7386C15.5821 22.9632 15.596 23.3135 15.8207 23.521C16.8252 24.4489 18.132 24.9599 19.5004 24.9599C20.8687 24.9599 22.1755 24.4489 23.1801 23.521M20.6074 19.8535V15.916C20.6074 15.6102 20.3595 15.3623 20.0537 15.3623C19.7479 15.3623 19.5 15.6102 19.5 15.916V19.8535C19.5 20.0231 19.362 20.1611 19.1924 20.1611H18.7412C18.4354 20.1611 18.1875 20.409 18.1875 20.7148C18.1875 21.0207 18.4354 21.2686 18.7412 21.2686H19.1924C19.9726 21.2686 20.6074 20.6338 20.6074 19.8535M24.4219 17.4644V15.8853C24.4219 15.5964 24.1877 15.3623 23.8989 15.3623C23.6101 15.3623 23.376 15.5964 23.376 15.8853V17.4644C23.376 17.7532 23.6101 17.9873 23.8989 17.9873C24.1877 17.9873 24.4219 17.7532 24.4219 17.4644M15.2241 17.9873V17.9873C14.9353 17.9873 14.7012 17.7532 14.7012 17.4644V15.8853C14.7012 15.5964 14.9353 15.3623 15.2241 15.3623C15.5129 15.3623 15.7471 15.5964 15.7471 15.8853V17.4644C15.7471 17.7532 15.5129 17.9873 15.2241 17.9873" fill="#323232"/>
<path d="M23.2111 22.7386L23.3654 22.5961L23.3653 22.5961L23.2111 22.7386ZM22.4286 22.7075L22.2862 22.5532L22.2861 22.5532L22.4286 22.7075ZM16.5721 22.7075L16.7146 22.5532L16.7146 22.5532L16.5721 22.7075ZM15.7896 22.7386L15.6354 22.5961L15.6354 22.5961L15.7896 22.7386ZM15.8207 23.521L15.6782 23.6753L15.6782 23.6753L15.8207 23.521ZM30.21 25.5957V23.2373H29.79V25.5957H30.21ZM30.21 23.2373C30.21 22.8269 29.8772 22.4941 29.4668 22.4941V22.9141C29.6453 22.9141 29.79 23.0588 29.79 23.2373H30.21ZM29.4668 22.4941C29.0563 22.4941 28.7236 22.8269 28.7236 23.2373H29.1436C29.1436 23.0588 29.2883 22.9141 29.4668 22.9141V22.4941ZM28.7236 23.2373V25.5957H29.1436V23.2373H28.7236ZM28.7236 25.5957C28.7236 26.7688 27.7688 27.7236 26.5957 27.7236V28.1436C28.0008 28.1436 29.1436 27.0008 29.1436 25.5957H28.7236ZM26.5957 27.7236H24.2373V28.1436H26.5957V27.7236ZM24.2373 27.7236C23.8269 27.7236 23.4941 28.0563 23.4941 28.4668H23.9141C23.9141 28.2883 24.0588 28.1436 24.2373 28.1436V27.7236ZM23.4941 28.4668C23.4941 28.8772 23.8269 29.21 24.2373 29.21V28.79C24.0588 28.79 23.9141 28.6453 23.9141 28.4668H23.4941ZM24.2373 29.21H26.5957V28.79H24.2373V29.21ZM26.5957 29.21C28.5888 29.21 30.21 27.5888 30.21 25.5957H29.79C29.79 27.3568 28.3568 28.79 26.5957 28.79V29.21ZM14.7627 27.7236H12.4043V28.1436H14.7627V27.7236ZM12.4043 27.7236C11.2312 27.7236 10.2764 26.7688 10.2764 25.5957H9.85641C9.85641 27.0008 10.9992 28.1436 12.4043 28.1436V27.7236ZM10.2764 25.5957V23.2373H9.85641V25.5957H10.2764ZM10.2764 23.2373C10.2764 22.8269 9.94365 22.4941 9.5332 22.4941V22.9141C9.71169 22.9141 9.85641 23.0588 9.85641 23.2373H10.2764ZM9.5332 22.4941C9.12275 22.4941 8.79 22.8269 8.79 23.2373H9.21C9.21 23.0588 9.35471 22.9141 9.5332 22.9141V22.4941ZM8.79 23.2373V25.5957H9.21V23.2373H8.79ZM8.79 25.5957C8.79 27.5888 10.4112 29.21 12.4043 29.21V28.79C10.6432 28.79 9.21 27.3568 9.21 25.5957H8.79ZM12.4043 29.21H14.7627V28.79H12.4043V29.21ZM14.7627 29.21C15.1731 29.21 15.5059 28.8772 15.5059 28.4668H15.0859C15.0859 28.6453 14.9412 28.79 14.7627 28.79V29.21ZM15.5059 28.4668C15.5059 28.0563 15.1731 27.7236 14.7627 27.7236V28.1436C14.9412 28.1436 15.0859 28.2883 15.0859 28.4668H15.5059ZM10.2764 13.7627V11.4043H9.85641V13.7627H10.2764ZM10.2764 11.4043C10.2764 10.2312 11.2312 9.27641 12.4043 9.27641V8.85641C10.9992 8.85641 9.85641 9.99919 9.85641 11.4043H10.2764ZM12.4043 9.27641H14.7627V8.85641H12.4043V9.27641ZM14.7627 9.27641C15.1731 9.27641 15.5059 8.94365 15.5059 8.5332H15.0859C15.0859 8.71169 14.9412 8.85641 14.7627 8.85641V9.27641ZM15.5059 8.5332C15.5059 8.12275 15.1731 7.79 14.7627 7.79V8.21C14.9412 8.21 15.0859 8.35471 15.0859 8.5332H15.5059ZM14.7627 7.79H12.4043V8.21H14.7627V7.79ZM12.4043 7.79C10.4112 7.79 8.79 9.41117 8.79 11.4043H9.21C9.21 9.64314 10.6432 8.21 12.4043 8.21V7.79ZM8.79 11.4043V13.7627H9.21V11.4043H8.79ZM8.79 13.7627C8.79 14.1731 9.12275 14.5059 9.5332 14.5059V14.0859C9.35471 14.0859 9.21 13.9412 9.21 13.7627H8.79ZM9.5332 14.5059C9.94365 14.5059 10.2764 14.1731 10.2764 13.7627H9.85641C9.85641 13.9412 9.71169 14.0859 9.5332 14.0859V14.5059ZM30.21 13.7627V11.4043H29.79V13.7627H30.21ZM30.21 11.4043C30.21 9.41117 28.5888 7.79 26.5957 7.79V8.21C28.3568 8.21 29.79 9.64314 29.79 11.4043H30.21ZM26.5957 7.79H24.2373V8.21H26.5957V7.79ZM24.2373 7.79C23.8269 7.79 23.4941 8.12275 23.4941 8.5332H23.9141C23.9141 8.35471 24.0588 8.21 24.2373 8.21V7.79ZM23.4941 8.5332C23.4941 8.94365 23.8269 9.27641 24.2373 9.27641V8.85641C24.0588 8.85641 23.9141 8.71169 23.9141 8.5332H23.4941ZM24.2373 9.27641H26.5957V8.85641H24.2373V9.27641ZM26.5957 9.27641C27.7688 9.27641 28.7236 10.2312 28.7236 11.4043H29.1436C29.1436 9.99919 28.0008 8.85641 26.5957 8.85641V9.27641ZM28.7236 11.4043V13.7627H29.1436V11.4043H28.7236ZM28.7236 13.7627C28.7236 14.1731 29.0563 14.5059 29.4668 14.5059V14.0859C29.2883 14.0859 29.1436 13.9412 29.1436 13.7627H28.7236ZM29.4668 14.5059C29.8772 14.5059 30.21 14.1731 30.21 13.7627H29.79C29.79 13.9412 29.6453 14.0859 29.4668 14.0859V14.5059ZM23.3226 23.6753C23.6324 23.3891 23.6515 22.9059 23.3654 22.5961L23.0568 22.881C23.1856 23.0205 23.177 23.238 23.0376 23.3667L23.3226 23.6753ZM23.3653 22.5961C23.0791 22.2862 22.596 22.2671 22.2862 22.5532L22.5711 22.8618C22.7106 22.733 22.928 22.7416 23.0568 22.8811L23.3653 22.5961ZM22.2861 22.5532C21.5256 23.2557 20.5366 23.6425 19.5004 23.6425V24.0625C20.6421 24.0625 21.733 23.636 22.5711 22.8618L22.2861 22.5532ZM19.5004 23.6425C18.4642 23.6425 17.4751 23.2557 16.7146 22.5532L16.4296 22.8618C17.2678 23.636 18.3586 24.0625 19.5004 24.0625V23.6425ZM16.7146 22.5532C16.4047 22.2671 15.9216 22.2863 15.6354 22.5961L15.9439 22.8811C16.0727 22.7416 16.2901 22.733 16.4296 22.8618L16.7146 22.5532ZM15.6354 22.5961C15.3492 22.9059 15.3683 23.3891 15.6782 23.6753L15.9632 23.3667C15.8237 23.238 15.8151 23.0205 15.9439 22.881L15.6354 22.5961ZM15.6782 23.6753C16.7216 24.639 18.0792 25.1699 19.5004 25.1699V24.7499C18.1848 24.7499 16.9289 24.2588 15.9632 23.3667L15.6782 23.6753ZM19.5004 25.1699C20.9215 25.1699 22.2792 24.639 23.3226 23.6753L23.0376 23.3667C22.0718 24.2588 20.8159 24.7499 19.5004 24.7499V25.1699ZM20.8174 19.8535V15.916H20.3974V19.8535H20.8174ZM20.8174 15.916C20.8174 15.4942 20.4755 15.1523 20.0537 15.1523V15.5723C20.2435 15.5723 20.3974 15.7262 20.3974 15.916H20.8174ZM20.0537 15.1523C19.6319 15.1523 19.29 15.4942 19.29 15.916H19.71C19.71 15.7262 19.8639 15.5723 20.0537 15.5723V15.1523ZM19.29 15.916V19.8535H19.71V15.916H19.29ZM19.29 19.8535C19.29 19.9072 19.246 19.9511 19.1924 19.9511V20.3711C19.478 20.3711 19.71 20.1391 19.71 19.8535H19.29ZM19.1924 19.9511H18.7412V20.3711H19.1924V19.9511ZM18.7412 19.9511C18.3194 19.9511 17.9775 20.2931 17.9775 20.7148H18.3975C18.3975 20.525 18.5514 20.3711 18.7412 20.3711V19.9511ZM17.9775 20.7148C17.9775 21.1366 18.3194 21.4786 18.7412 21.4786V21.0586C18.5514 21.0586 18.3975 20.9047 18.3975 20.7148H17.9775ZM18.7412 21.4786H19.1924V21.0586H18.7412V21.4786ZM19.1924 21.4786C20.0886 21.4786 20.8174 20.7498 20.8174 19.8535H20.3974C20.3974 20.5178 19.8567 21.0586 19.1924 21.0586V21.4786ZM24.6319 17.4644V15.8853H24.2119V17.4644H24.6319ZM24.6319 15.8853C24.6319 15.4805 24.3037 15.1523 23.8989 15.1523V15.5723C24.0718 15.5723 24.2119 15.7124 24.2119 15.8853H24.6319ZM23.8989 15.1523C23.4941 15.1523 23.166 15.4805 23.166 15.8853H23.586C23.586 15.7124 23.7261 15.5723 23.8989 15.5723V15.1523ZM23.166 15.8853V17.4644H23.586V15.8853H23.166ZM23.166 17.4644C23.166 17.8691 23.4941 18.1973 23.8989 18.1973V17.7773C23.7261 17.7773 23.586 17.6372 23.586 17.4644H23.166ZM23.8989 18.1973C24.3037 18.1973 24.6319 17.8691 24.6319 17.4644H24.2119C24.2119 17.6372 24.0718 17.7773 23.8989 17.7773V18.1973ZM15.2241 17.7773C15.0513 17.7773 14.9112 17.6372 14.9112 17.4644H14.4912C14.4912 17.8691 14.8193 18.1973 15.2241 18.1973V17.7773ZM14.9112 17.4644V15.8853H14.4912V17.4644H14.9112ZM14.9112 15.8853C14.9112 15.7124 15.0513 15.5723 15.2241 15.5723V15.1523C14.8193 15.1523 14.4912 15.4805 14.4912 15.8853H14.9112ZM15.2241 15.5723C15.397 15.5723 15.5371 15.7124 15.5371 15.8853H15.9571C15.9571 15.4805 15.6289 15.1523 15.2241 15.1523V15.5723ZM15.5371 15.8853V17.4644H15.9571V15.8853H15.5371ZM15.5371 17.4644C15.5371 17.6372 15.397 17.7773 15.2241 17.7773V18.1973C15.6289 18.1973 15.9571 17.8691 15.9571 17.4644H15.5371Z" fill="#323232"/>
</svg>
