<svg width="24" height="20" viewBox="0 0 24 20" fill="none" xmlns="http://www.w3.org/2000/svg">
<path fill-rule="evenodd" clip-rule="evenodd" d="M19.8737 4.21637C20.47 4.21637 20.9941 4.45131 21.3737 4.8489C21.7712 5.22842 22.0062 5.75252 22.0062 6.3489V15.3489C22.0062 15.9272 21.7532 16.4694 21.3737 16.8489C20.9941 17.2465 20.47 17.4814 19.8737 17.4814H5.12667C4.54836 17.4814 4.00619 17.2284 3.62667 16.8489C3.22908 16.4694 2.99414 15.9453 2.99414 15.3489V6.3489C2.99414 5.77059 3.24715 5.22842 3.62667 4.8489C4.00619 4.45131 4.53029 4.21637 5.12667 4.21637H8.1086V4.18023C8.1086 3.72842 8.28932 3.31276 8.59655 3.00553C8.90378 2.6983 9.31944 2.51758 9.78932 2.51758H15.211C15.6628 2.51758 16.0785 2.6983 16.3857 3.00553C16.6929 3.29469 16.8737 3.72842 16.8737 4.18023V4.21637H19.8737ZM21.0484 15.3489H21.0664V6.3489C21.0664 6.0236 20.9399 5.73445 20.7231 5.51758C20.5062 5.30071 20.217 5.1742 19.8917 5.1742H16.4038C16.1327 5.1742 15.9158 4.95734 15.9158 4.68625V4.16216C15.9158 3.96336 15.8435 3.78264 15.717 3.65613C15.5905 3.52963 15.4098 3.45734 15.211 3.45734H9.80739C9.6086 3.45734 9.42788 3.52963 9.30137 3.65613C9.17486 3.78264 9.10257 3.96336 9.10257 4.16216V4.68625C9.10257 4.95734 8.88571 5.1742 8.61462 5.1742H5.12667C4.80137 5.1742 4.51221 5.30071 4.29535 5.51758C4.07848 5.73445 3.95197 6.0236 3.95197 6.3489V15.3489C3.95197 15.6742 4.07848 15.9634 4.29535 16.1802C4.51221 16.3971 4.80137 16.5236 5.12667 16.5236H19.8737C20.199 16.5236 20.4881 16.3971 20.705 16.1802C20.9219 15.9634 21.0484 15.6742 21.0484 15.3489Z" fill="white"/>
<path d="M21.3737 4.8489L21.3012 4.91803L21.3046 4.92124L21.3737 4.8489ZM21.3737 16.8489L21.3029 16.7782L21.3013 16.7799L21.3737 16.8489ZM3.62667 16.8489L3.6974 16.7782L3.69572 16.7766L3.62667 16.8489ZM3.62667 4.8489L3.6974 4.91963L3.69901 4.91795L3.62667 4.8489ZM8.1086 4.21637V4.31637H8.2086V4.21637H8.1086ZM16.3857 3.00553L16.315 3.07627L16.3172 3.07835L16.3857 3.00553ZM16.8737 4.21637H16.7737V4.31637H16.8737V4.21637ZM21.0664 15.3489V15.4489H21.1664V15.3489H21.0664ZM21.0484 15.3489V15.2489H20.9484V15.3489H21.0484ZM15.717 3.65613L15.6463 3.72684L15.717 3.65613ZM9.30137 3.65613L9.37208 3.72684L9.30137 3.65613ZM4.29535 5.51758L4.22463 5.44687L4.29535 5.51758ZM4.29535 16.1802L4.22463 16.2509L4.29535 16.1802ZM21.446 4.77986C21.0477 4.36256 20.4975 4.11637 19.8737 4.11637V4.31637C20.4426 4.31637 20.9406 4.54007 21.3013 4.91795L21.446 4.77986ZM22.1062 6.3489C22.1062 5.72511 21.86 5.1749 21.4427 4.77657L21.3046 4.92124C21.6825 5.28194 21.9062 5.77993 21.9062 6.3489H22.1062ZM22.1062 15.3489V6.3489H21.9062V15.3489H22.1062ZM21.4444 16.9196C21.8409 16.5231 22.1062 15.9561 22.1062 15.3489H21.9062C21.9062 15.8984 21.6654 16.4157 21.3029 16.7782L21.4444 16.9196ZM19.8737 17.5814C20.4975 17.5814 21.0477 17.3353 21.446 16.918L21.3013 16.7799C20.9406 17.1577 20.4426 17.3814 19.8737 17.3814V17.5814ZM5.12667 17.5814H19.8737V17.3814H5.12667V17.5814ZM3.55596 16.9196C3.95252 17.3162 4.51951 17.5814 5.12667 17.5814V17.3814C4.57721 17.3814 4.05986 17.1407 3.69738 16.7782L3.55596 16.9196ZM2.89414 15.3489C2.89414 15.9727 3.14032 16.5229 3.55762 16.9212L3.69572 16.7766C3.31784 16.4159 3.09414 15.9179 3.09414 15.3489H2.89414ZM2.89414 6.3489V15.3489H3.09414V6.3489H2.89414ZM3.55596 4.77819C3.1594 5.17475 2.89414 5.74174 2.89414 6.3489H3.09414C3.09414 5.79944 3.3349 5.28209 3.69738 4.91961L3.55596 4.77819ZM5.12667 4.11637C4.50287 4.11637 3.95267 4.36256 3.55434 4.77986L3.69901 4.91795C4.05971 4.54007 4.5577 4.31637 5.12667 4.31637V4.11637ZM8.1086 4.11637H5.12667V4.31637H8.1086V4.11637ZM8.0086 4.18023V4.21637H8.2086V4.18023H8.0086ZM8.52584 2.93482C8.2004 3.26026 8.0086 3.70114 8.0086 4.18023H8.2086C8.2086 3.75571 8.37824 3.36526 8.66726 3.07624L8.52584 2.93482ZM9.78932 2.41758C9.29273 2.41758 8.85169 2.60897 8.52584 2.93482L8.66726 3.07624C8.95587 2.78763 9.34615 2.61758 9.78932 2.61758V2.41758ZM15.211 2.41758H9.78932V2.61758H15.211V2.41758ZM16.4564 2.93482C16.131 2.60938 15.6901 2.41758 15.211 2.41758V2.61758C15.6355 2.61758 16.026 2.78722 16.315 3.07624L16.4564 2.93482ZM16.9737 4.18023C16.9737 3.70289 16.783 3.24212 16.4542 2.93271L16.3172 3.07835C16.6029 3.34725 16.7737 3.75395 16.7737 4.18023H16.9737ZM16.9737 4.21637V4.18023H16.7737V4.21637H16.9737ZM19.8737 4.11637H16.8737V4.31637H19.8737V4.11637ZM21.0664 15.2489H21.0484V15.4489H21.0664V15.2489ZM20.9664 6.3489V15.3489H21.1664V6.3489H20.9664ZM20.6523 5.58829C20.8509 5.78685 20.9664 6.05075 20.9664 6.3489H21.1664C21.1664 5.99645 21.0289 5.68204 20.7938 5.44687L20.6523 5.58829ZM19.8917 5.2742C20.1899 5.2742 20.4538 5.38973 20.6523 5.58829L20.7938 5.44687C20.5586 5.2117 20.2442 5.0742 19.8917 5.0742V5.2742ZM16.4038 5.2742H19.8917V5.0742H16.4038V5.2742ZM15.8158 4.68625C15.8158 5.01257 16.0775 5.2742 16.4038 5.2742V5.0742C16.1879 5.0742 16.0158 4.90211 16.0158 4.68625H15.8158ZM15.8158 4.16216V4.68625H16.0158V4.16216H15.8158ZM15.6463 3.72684C15.7524 3.83292 15.8158 3.98742 15.8158 4.16216H16.0158C16.0158 3.9393 15.9347 3.73235 15.7877 3.58542L15.6463 3.72684ZM15.211 3.55734C15.3857 3.55734 15.5402 3.62076 15.6463 3.72684L15.7877 3.58542C15.6408 3.43849 15.4339 3.35734 15.211 3.35734V3.55734ZM9.80739 3.55734H15.211V3.35734H9.80739V3.55734ZM9.37208 3.72684C9.47816 3.62076 9.63266 3.55734 9.80739 3.55734V3.35734C9.58454 3.35734 9.37759 3.43849 9.23066 3.58542L9.37208 3.72684ZM9.20257 4.16216C9.20257 3.98742 9.266 3.83292 9.37208 3.72684L9.23066 3.58542C9.08373 3.73235 9.00257 3.9393 9.00257 4.16216H9.20257ZM9.20257 4.68625V4.16216H9.00257V4.68625H9.20257ZM8.61462 5.2742C8.94094 5.2742 9.20257 5.01257 9.20257 4.68625H9.00257C9.00257 4.90211 8.83048 5.0742 8.61462 5.0742V5.2742ZM5.12667 5.2742H8.61462V5.0742H5.12667V5.2742ZM4.36606 5.58829C4.56462 5.38973 4.82852 5.2742 5.12667 5.2742V5.0742C4.77422 5.0742 4.45981 5.2117 4.22463 5.44687L4.36606 5.58829ZM4.05197 6.3489C4.05197 6.05075 4.16749 5.78685 4.36606 5.58829L4.22463 5.44687C3.98946 5.68204 3.85197 5.99645 3.85197 6.3489H4.05197ZM4.05197 15.3489V6.3489H3.85197V15.3489H4.05197ZM4.36606 16.1095C4.16749 15.911 4.05197 15.6471 4.05197 15.3489H3.85197C3.85197 15.7014 3.98946 16.0158 4.22463 16.2509L4.36606 16.1095ZM5.12667 16.4236C4.82852 16.4236 4.56462 16.3081 4.36606 16.1095L4.22463 16.2509C4.45981 16.4861 4.77422 16.6236 5.12667 16.6236V16.4236ZM19.8737 16.4236H5.12667V16.6236H19.8737V16.4236ZM20.6343 16.1095C20.4357 16.3081 20.1718 16.4236 19.8737 16.4236V16.6236C20.2261 16.6236 20.5405 16.4861 20.7757 16.2509L20.6343 16.1095ZM20.9484 15.3489C20.9484 15.6471 20.8328 15.911 20.6343 16.1095L20.7757 16.2509C21.0109 16.0158 21.1484 15.7014 21.1484 15.3489H20.9484Z" fill="black"/>
<path fill-rule="evenodd" clip-rule="evenodd" d="M9.35589 7.70355C10.1511 6.90837 11.2716 6.40234 12.5005 6.40234C13.7294 6.40234 14.8499 6.90837 15.645 7.70355C16.4402 8.49873 16.9463 9.61921 16.9463 10.8481C16.9463 12.077 16.4583 13.1795 15.645 13.9927C14.8499 14.7879 13.7294 15.2939 12.5005 15.2939C11.2716 15.2939 10.1691 14.806 9.35589 13.9927C8.56071 13.1975 8.05469 12.077 8.05469 10.8481C8.05469 9.61921 8.54264 8.5168 9.35589 7.70355ZM12.5005 14.3361C13.4583 14.3361 14.3258 13.9385 14.9583 13.324C15.5908 12.6915 15.9884 11.824 15.9704 10.8662C15.9704 9.90837 15.5908 9.0409 14.9583 8.40837C14.3258 7.79391 13.4583 7.39632 12.5005 7.39632C11.5426 7.39632 10.6752 7.77584 10.0426 8.40837C9.42818 9.0409 9.03059 9.90837 9.03059 10.8662C9.03059 11.824 9.41011 12.6915 10.0426 13.324C10.6752 13.9385 11.5426 14.3361 12.5005 14.3361Z" fill="white"/>
<path d="M9.35589 7.70355L9.4266 7.77426L9.35589 7.70355ZM15.645 7.70355L15.7158 7.63284L15.645 7.70355ZM15.645 13.9927L15.7158 14.0634L15.645 13.9927ZM9.35589 13.9927L9.4266 13.922L9.35589 13.9927ZM14.9583 13.324L15.028 13.3958L15.029 13.3947L14.9583 13.324ZM15.9704 10.8662H15.8703L15.8704 10.8681L15.9704 10.8662ZM14.9583 8.40837L15.029 8.33765L15.028 8.33664L14.9583 8.40837ZM10.0426 8.40837L9.97192 8.33765L9.97091 8.33869L10.0426 8.40837ZM10.0426 13.324L9.97192 13.3947L9.97296 13.3958L10.0426 13.324ZM12.5005 6.30234C11.2439 6.30234 10.0983 6.81974 9.28518 7.63284L9.4266 7.77426C10.2039 6.997 11.2992 6.50234 12.5005 6.50234V6.30234ZM15.7158 7.63284C14.9027 6.81974 13.7571 6.30234 12.5005 6.30234V6.50234C13.7017 6.50234 14.7971 6.997 15.5743 7.77426L15.7158 7.63284ZM17.0463 10.8481C17.0463 9.59153 16.5289 8.44594 15.7158 7.63284L15.5743 7.77426C16.3516 8.55152 16.8463 9.64689 16.8463 10.8481H17.0463ZM15.7158 14.0634C16.5471 13.232 17.0463 12.1044 17.0463 10.8481H16.8463C16.8463 12.0497 16.3695 13.1269 15.5743 13.922L15.7158 14.0634ZM12.5005 15.3939C13.7571 15.3939 14.9027 14.8765 15.7158 14.0634L15.5743 13.922C14.7971 14.6993 13.7017 15.1939 12.5005 15.1939V15.3939ZM9.28518 14.0634C10.1166 14.8948 11.2442 15.3939 12.5005 15.3939V15.1939C11.2989 15.1939 10.2217 14.7171 9.4266 13.922L9.28518 14.0634ZM7.95469 10.8481C7.95469 12.1047 8.47208 13.2503 9.28518 14.0634L9.4266 13.922C8.64934 13.1447 8.15469 12.0494 8.15469 10.8481H7.95469ZM9.28518 7.63284C8.45379 8.46423 7.95469 9.59183 7.95469 10.8481H8.15469C8.15469 9.64659 8.63149 8.56938 9.4266 7.77426L9.28518 7.63284ZM14.8886 13.2523C14.2731 13.8502 13.4301 14.2361 12.5005 14.2361V14.4361C13.4865 14.4361 14.3784 14.0268 15.028 13.3958L14.8886 13.2523ZM15.8704 10.8681C15.8879 11.7962 15.5028 12.6382 14.8876 13.2533L15.029 13.3947C15.6789 12.7448 16.089 11.8518 16.0703 10.8643L15.8704 10.8681ZM14.8876 8.47908C15.5017 9.09323 15.8704 9.93541 15.8704 10.8662H16.0704C16.0704 9.88132 15.6799 8.98857 15.029 8.33766L14.8876 8.47908ZM12.5005 7.49632C13.4301 7.49632 14.2731 7.88218 14.8886 8.4801L15.028 8.33664C14.3784 7.70564 13.4865 7.29632 12.5005 7.29632V7.49632ZM10.1134 8.47908C10.7275 7.86493 11.5697 7.49632 12.5005 7.49632V7.29632C11.5156 7.29632 10.6228 7.68675 9.97193 8.33766L10.1134 8.47908ZM9.13059 10.8662C9.13059 9.93657 9.51646 9.09354 10.1144 8.47805L9.97091 8.33869C9.33991 8.98825 8.93059 9.88016 8.93059 10.8662H9.13059ZM10.1134 13.2533C9.4992 12.6392 9.13059 11.797 9.13059 10.8662H8.93059C8.93059 11.8511 9.32102 12.7438 9.97193 13.3947L10.1134 13.2533ZM12.5005 14.2361C11.5708 14.2361 10.7278 13.8502 10.1123 13.2523L9.97296 13.3958C10.6225 14.0268 11.5144 14.4361 12.5005 14.4361V14.2361Z" fill="black"/>
<circle cx="18.9344" cy="7.27031" r="0.885542" fill="white"/>
<rect x="7.5" y="2" width="9" height="4" fill="black"/>
<rect x="0.5" y="3" width="23" height="16" rx="4" fill="black"/>
<path fill-rule="evenodd" clip-rule="evenodd" d="M20.9202 3.04348C21.6416 3.04348 22.2757 3.32609 22.7348 3.80435C23.2158 4.26087 23.5 4.8913 23.5 5.6087V16.4348C23.5 17.1304 23.1939 17.7826 22.7348 18.2391C22.2757 18.7174 21.6416 19 20.9202 19H3.07985C2.38023 19 1.72433 18.6957 1.26521 18.2391C0.784221 17.7826 0.5 17.1522 0.5 16.4348V5.6087C0.5 4.91304 0.806084 4.26087 1.26521 3.80435C1.72433 3.32609 2.35837 3.04348 3.07985 3.04348H6.68726V3C6.68726 2.45652 6.90589 1.95652 7.27757 1.58696C7.64924 1.21739 8.15209 1 8.72053 1H15.2795C15.826 1 16.3289 1.21739 16.7006 1.58696C17.0722 1.93478 17.2909 2.45652 17.2909 3V3.04348H20.9202ZM22.3417 16.4346H22.3636V5.60853C22.3636 5.21723 22.2105 4.8694 21.9482 4.60853C21.6858 4.34766 21.336 4.19549 20.9424 4.19549H16.7229C16.3949 4.19549 16.1326 3.93462 16.1326 3.60853V2.9781C16.1326 2.73897 16.0451 2.52158 15.8921 2.3694C15.739 2.21723 15.5204 2.13027 15.2799 2.13027H8.74283C8.50234 2.13027 8.2837 2.21723 8.13066 2.3694C7.97762 2.52158 7.89017 2.73897 7.89017 2.9781V3.60853C7.89017 3.93462 7.62781 4.19549 7.29986 4.19549H3.08028C2.68675 4.19549 2.33694 4.34766 2.07458 4.60853C1.81222 4.8694 1.65918 5.21723 1.65918 5.60853V16.4346C1.65918 16.8259 1.81222 17.1737 2.07458 17.4346C2.33694 17.6955 2.68675 17.8477 3.08028 17.8477H20.9206C21.3141 17.8477 21.6639 17.6955 21.9263 17.4346C22.1886 17.1737 22.3417 16.8259 22.3417 16.4346Z" fill="black"/>
<path d="M22.7348 3.80435L22.6626 3.87368L22.666 3.87688L22.7348 3.80435ZM22.7348 18.2391L22.6643 18.1682L22.6627 18.1699L22.7348 18.2391ZM1.26521 18.2391L1.33574 18.1682L1.33405 18.1666L1.26521 18.2391ZM1.26521 3.80435L1.33574 3.87528L1.33735 3.8736L1.26521 3.80435ZM6.68726 3.04348V3.14348H6.78726V3.04348H6.68726ZM7.27757 1.58696L7.34808 1.65787L7.27757 1.58696ZM16.7006 1.58696L16.63 1.6579L16.6322 1.65997L16.7006 1.58696ZM17.2909 3.04348H17.1909V3.14348H17.2909V3.04348ZM22.3636 16.4346V16.5346H22.4636V16.4346H22.3636ZM22.3417 16.4346V16.3346H22.2417V16.4346H22.3417ZM21.9482 4.60853L22.0187 4.53762L21.9482 4.60853ZM15.8921 2.3694L15.9626 2.29849V2.29849L15.8921 2.3694ZM8.13066 2.3694L8.06015 2.29849V2.29849L8.13066 2.3694ZM2.07458 4.60853L2.00407 4.53762L2.07458 4.60853ZM2.07458 17.4346L2.00407 17.5055H2.00407L2.07458 17.4346ZM21.9263 17.4346L21.9968 17.5055L21.9263 17.4346ZM22.8069 3.73509C22.3289 3.23718 21.6689 2.94348 20.9202 2.94348V3.14348C21.6144 3.14348 22.2224 3.41499 22.6627 3.8736L22.8069 3.73509ZM23.6 5.6087C23.6 4.8637 23.3044 4.2071 22.8036 3.73182L22.666 3.87688C23.1272 4.31464 23.4 4.91891 23.4 5.6087H23.6ZM23.6 16.4348V5.6087H23.4V16.4348H23.6ZM22.8053 18.31C23.2815 17.8365 23.6 17.1595 23.6 16.4348H23.4C23.4 17.1014 23.1063 17.7287 22.6643 18.1682L22.8053 18.31ZM20.9202 19.1C21.6689 19.1 22.3289 18.8063 22.8069 18.3084L22.6627 18.1699C22.2224 18.6285 21.6144 18.9 20.9202 18.9V19.1ZM3.07985 19.1H20.9202V18.9H3.07985V19.1ZM1.1947 18.31C1.67091 18.7836 2.35157 19.1 3.07985 19.1V18.9C2.40889 18.9 1.77775 18.6077 1.33572 18.1682L1.1947 18.31ZM0.4 16.4348C0.4 17.1798 0.695613 17.8364 1.19637 18.3117L1.33405 18.1666C0.872828 17.7288 0.6 17.1246 0.6 16.4348H0.4ZM0.4 5.6087V16.4348H0.6V5.6087H0.4ZM1.1947 3.73344C0.718486 4.20695 0.4 4.884 0.4 5.6087H0.6C0.6 4.94208 0.893681 4.31479 1.33572 3.87526L1.1947 3.73344ZM3.07985 2.94348C2.33115 2.94348 1.67106 3.23718 1.19307 3.73509L1.33735 3.8736C1.77761 3.41499 2.38558 3.14348 3.07985 3.14348V2.94348ZM6.68726 2.94348H3.07985V3.14348H6.68726V2.94348ZM6.58726 3V3.04348H6.78726V3H6.58726ZM7.20706 1.51605C6.81712 1.90377 6.58726 2.42905 6.58726 3H6.78726C6.78726 2.48399 6.99467 2.00927 7.34808 1.65787L7.20706 1.51605ZM8.72053 0.9C8.12557 0.9 7.5974 1.12792 7.20706 1.51605L7.34808 1.65787C7.70108 1.30686 8.17862 1.1 8.72053 1.1V0.9ZM15.2795 0.9H8.72053V1.1H15.2795V0.9ZM16.7711 1.51605C16.3812 1.12833 15.8531 0.9 15.2795 0.9V1.1C15.7989 1.1 16.2766 1.30645 16.6301 1.65787L16.7711 1.51605ZM17.3909 3C17.3909 2.43081 17.1622 1.88197 16.7689 1.51394L16.6322 1.65997C16.9823 1.98759 17.1909 2.48224 17.1909 3H17.3909ZM17.3909 3.04348V3H17.1909V3.04348H17.3909ZM20.9202 2.94348H17.2909V3.14348H20.9202V2.94348ZM22.3636 16.3346H22.3417V16.5346H22.3636V16.3346ZM22.2636 5.60853V16.4346H22.4636V5.60853H22.2636ZM21.8776 4.67944C22.1216 4.92206 22.2636 5.24457 22.2636 5.60853H22.4636C22.4636 5.18989 22.2994 4.81675 22.0187 4.53762L21.8776 4.67944ZM20.9424 4.29549C21.309 4.29549 21.6336 4.43682 21.8776 4.67944L22.0187 4.53762C21.738 4.25851 21.363 4.09549 20.9424 4.09549V4.29549ZM16.7229 4.29549H20.9424V4.09549H16.7229V4.29549ZM16.0326 3.60853C16.0326 3.99038 16.3402 4.29549 16.7229 4.29549V4.09549C16.4496 4.09549 16.2326 3.87886 16.2326 3.60853H16.0326ZM16.0326 2.9781V3.60853H16.2326V2.9781H16.0326ZM15.8216 2.44031C15.9541 2.5721 16.0326 2.7632 16.0326 2.9781H16.2326C16.2326 2.71473 16.1361 2.47105 15.9626 2.29849L15.8216 2.44031ZM15.2799 2.23027C15.4965 2.23027 15.689 2.30849 15.8216 2.44031L15.9626 2.29849C15.7891 2.12597 15.5443 2.03027 15.2799 2.03027V2.23027ZM8.74283 2.23027H15.2799V2.03027H8.74283V2.23027ZM8.20117 2.44031C8.33375 2.30849 8.52622 2.23027 8.74283 2.23027V2.03027C8.47845 2.03027 8.23366 2.12597 8.06015 2.29849L8.20117 2.44031ZM7.99017 2.9781C7.99017 2.7632 8.06863 2.5721 8.20117 2.44031L8.06015 2.29849C7.88661 2.47105 7.79017 2.71473 7.79017 2.9781H7.99017ZM7.99017 3.60853V2.9781H7.79017V3.60853H7.99017ZM7.29986 4.29549C7.6825 4.29549 7.99017 3.99038 7.99017 3.60853H7.79017C7.79017 3.87886 7.57312 4.09549 7.29986 4.09549V4.29549ZM3.08028 4.29549H7.29986V4.09549H3.08028V4.29549ZM2.14509 4.67944C2.3891 4.43682 2.71371 4.29549 3.08028 4.29549V4.09549C2.65978 4.09549 2.28478 4.25851 2.00407 4.53762L2.14509 4.67944ZM1.75918 5.60853C1.75918 5.24457 1.90109 4.92206 2.14509 4.67944L2.00407 4.53762C1.72335 4.81675 1.55918 5.18989 1.55918 5.60853H1.75918ZM1.75918 16.4346V5.60853H1.55918V16.4346H1.75918ZM2.14509 17.3637C1.90109 17.1211 1.75918 16.7986 1.75918 16.4346H1.55918C1.55918 16.8533 1.72335 17.2264 2.00407 17.5055L2.14509 17.3637ZM3.08028 17.7477C2.71371 17.7477 2.3891 17.6063 2.14509 17.3637L2.00407 17.5055C2.28478 17.7846 2.65978 17.9477 3.08028 17.9477V17.7477ZM20.9206 17.7477H3.08028V17.9477H20.9206V17.7477ZM21.8558 17.3637C21.6118 17.6063 21.2872 17.7477 20.9206 17.7477V17.9477C21.3411 17.9477 21.7161 17.7846 21.9968 17.5055L21.8558 17.3637ZM22.2417 16.4346C22.2417 16.7986 22.0998 17.1211 21.8558 17.3637L21.9968 17.5055C22.2775 17.2264 22.4417 16.8533 22.4417 16.4346H22.2417Z" fill="black"/>
<path fill-rule="evenodd" clip-rule="evenodd" d="M8.19524 7.23941C9.15722 6.28289 10.5127 5.67419 11.9994 5.67419C13.4861 5.67419 14.8416 6.28289 15.8036 7.23941C16.7656 8.19593 17.3777 9.54376 17.3777 11.022C17.3777 12.5003 16.7874 13.8264 15.8036 14.8046C14.8416 15.7612 13.4861 16.3698 11.9994 16.3698C10.5127 16.3698 9.17908 15.7829 8.19524 14.8046C7.23326 13.8481 6.62109 12.5003 6.62109 11.022C6.62109 9.54376 7.2114 8.21767 8.19524 7.23941ZM11.9995 15.2174C13.1582 15.2174 14.2077 14.7391 14.9729 14C15.7381 13.2391 16.2191 12.1956 16.1972 11.0434C16.1972 9.89126 15.7381 8.84779 14.9729 8.08692C14.2077 7.34779 13.1582 6.86953 11.9995 6.86953C10.8407 6.86953 9.7913 7.32605 9.02609 8.08692C8.28275 8.84779 7.80176 9.89126 7.80176 11.0434C7.80176 12.1956 8.26088 13.2391 9.02609 14C9.7913 14.7391 10.8407 15.2174 11.9995 15.2174Z" fill="white"/>
<ellipse cx="19.7832" cy="6.71738" rx="1.07129" ry="1.06522" fill="#FF9B3D"/>
</svg>
