<svg width="38" height="38" viewBox="0 0 38 38" fill="none" xmlns="http://www.w3.org/2000/svg">
<rect width="38" height="38" rx="5" fill="white" fill-opacity="0.2"/>
<rect x="0.4" y="0.4" width="37.2" height="37.2" rx="4.6" stroke="#202020" stroke-opacity="0.7" stroke-width="0.8"/>
<rect x="14" y="11" width="9" height="4" fill="#323232"/>
<rect x="7" y="12" width="23" height="16" rx="4" fill="#323232"/>
<path fill-rule="evenodd" clip-rule="evenodd" d="M27.4202 12.0435C28.1416 12.0435 28.7757 12.3261 29.2348 12.8043C29.7158 13.2609 30 13.8913 30 14.6087V25.4348C30 26.1304 29.6939 26.7826 29.2348 27.2391C28.7757 27.7174 28.1416 28 27.4202 28H9.57985C8.88023 28 8.22433 27.6957 7.76521 27.2391C7.28422 26.7826 7 26.1522 7 25.4348V14.6087C7 13.913 7.30608 13.2609 7.76521 12.8043C8.22433 12.3261 8.85837 12.0435 9.57985 12.0435H13.1873V12C13.1873 11.4565 13.4059 10.9565 13.7776 10.587C14.1492 10.2174 14.6521 10 15.2205 10H21.7795C22.326 10 22.8289 10.2174 23.2006 10.587C23.5722 10.9348 23.7909 11.4565 23.7909 12V12.0435H27.4202ZM28.8417 25.4346H28.8636V14.6085C28.8636 14.2172 28.7105 13.8694 28.4482 13.6085C28.1858 13.3477 27.836 13.1955 27.4424 13.1955H23.2229C22.8949 13.1955 22.6326 12.9346 22.6326 12.6085V11.9781C22.6326 11.739 22.5451 11.5216 22.3921 11.3694C22.239 11.2172 22.0204 11.1303 21.7799 11.1303H15.2428C15.0023 11.1303 14.7837 11.2172 14.6307 11.3694C14.4776 11.5216 14.3902 11.739 14.3902 11.9781V12.6085C14.3902 12.9346 14.1278 13.1955 13.7999 13.1955H9.58028C9.18675 13.1955 8.83694 13.3477 8.57458 13.6085C8.31222 13.8694 8.15918 14.2172 8.15918 14.6085V25.4346C8.15918 25.8259 8.31222 26.1737 8.57458 26.4346C8.83694 26.6955 9.18675 26.8477 9.58028 26.8477H27.4206C27.8141 26.8477 28.1639 26.6955 28.4263 26.4346C28.6886 26.1737 28.8417 25.8259 28.8417 25.4346Z" fill="#323232"/>
<path d="M29.2348 12.8043L29.1626 12.8737L29.166 12.8769L29.2348 12.8043ZM29.2348 27.2391L29.1643 27.1682L29.1627 27.1699L29.2348 27.2391ZM7.76521 27.2391L7.83574 27.1682L7.83405 27.1666L7.76521 27.2391ZM7.76521 12.8043L7.83574 12.8753L7.83735 12.8736L7.76521 12.8043ZM13.1873 12.0435V12.1435H13.2873V12.0435H13.1873ZM13.7776 10.587L13.8481 10.6579L13.7776 10.587ZM23.2006 10.587L23.13 10.6579L23.1322 10.66L23.2006 10.587ZM23.7909 12.0435H23.6909V12.1435H23.7909V12.0435ZM28.8636 25.4346V25.5346H28.9636V25.4346H28.8636ZM28.8417 25.4346V25.3346H28.7417V25.4346H28.8417ZM28.4482 13.6085L28.5187 13.5376L28.4482 13.6085ZM22.3921 11.3694L22.4626 11.2985V11.2985L22.3921 11.3694ZM14.6307 11.3694L14.5602 11.2985V11.2985L14.6307 11.3694ZM8.57458 13.6085L8.50407 13.5376L8.57458 13.6085ZM8.57458 26.4346L8.50407 26.5055H8.50407L8.57458 26.4346ZM28.4263 26.4346L28.4968 26.5055L28.4263 26.4346ZM29.3069 12.7351C28.8289 12.2372 28.1689 11.9435 27.4202 11.9435V12.1435C28.1144 12.1435 28.7224 12.415 29.1627 12.8736L29.3069 12.7351ZM30.1 14.6087C30.1 13.8637 29.8044 13.2071 29.3036 12.7318L29.166 12.8769C29.6272 13.3146 29.9 13.9189 29.9 14.6087H30.1ZM30.1 25.4348V14.6087H29.9V25.4348H30.1ZM29.3053 27.31C29.7815 26.8365 30.1 26.1595 30.1 25.4348H29.9C29.9 26.1014 29.6063 26.7287 29.1643 27.1682L29.3053 27.31ZM27.4202 28.1C28.1689 28.1 28.8289 27.8063 29.3069 27.3084L29.1627 27.1699C28.7224 27.6285 28.1144 27.9 27.4202 27.9V28.1ZM9.57985 28.1H27.4202V27.9H9.57985V28.1ZM7.6947 27.31C8.17091 27.7836 8.85157 28.1 9.57985 28.1V27.9C8.90889 27.9 8.27775 27.6077 7.83572 27.1682L7.6947 27.31ZM6.9 25.4348C6.9 26.1798 7.19561 26.8364 7.69637 27.3117L7.83405 27.1666C7.37283 26.7288 7.1 26.1246 7.1 25.4348H6.9ZM6.9 14.6087V25.4348H7.1V14.6087H6.9ZM7.6947 12.7334C7.21849 13.2069 6.9 13.884 6.9 14.6087H7.1C7.1 13.9421 7.39368 13.3148 7.83572 12.8753L7.6947 12.7334ZM9.57985 11.9435C8.83115 11.9435 8.17106 12.2372 7.69307 12.7351L7.83735 12.8736C8.27761 12.415 8.88558 12.1435 9.57985 12.1435V11.9435ZM13.1873 11.9435H9.57985V12.1435H13.1873V11.9435ZM13.0873 12V12.0435H13.2873V12H13.0873ZM13.7071 10.516C13.3171 10.9038 13.0873 11.4291 13.0873 12H13.2873C13.2873 11.484 13.4947 11.0093 13.8481 10.6579L13.7071 10.516ZM15.2205 9.9C14.6256 9.9 14.0974 10.1279 13.7071 10.516L13.8481 10.6579C14.2011 10.3069 14.6786 10.1 15.2205 10.1V9.9ZM21.7795 9.9H15.2205V10.1H21.7795V9.9ZM23.2711 10.516C22.8812 10.1283 22.3531 9.9 21.7795 9.9V10.1C22.2989 10.1 22.7766 10.3065 23.1301 10.6579L23.2711 10.516ZM23.8909 12C23.8909 11.4308 23.6622 10.882 23.2689 10.5139L23.1322 10.66C23.4823 10.9876 23.6909 11.4822 23.6909 12H23.8909ZM23.8909 12.0435V12H23.6909V12.0435H23.8909ZM27.4202 11.9435H23.7909V12.1435H27.4202V11.9435ZM28.8636 25.3346H28.8417V25.5346H28.8636V25.3346ZM28.7636 14.6085V25.4346H28.9636V14.6085H28.7636ZM28.3776 13.6794C28.6216 13.9221 28.7636 14.2446 28.7636 14.6085H28.9636C28.9636 14.1899 28.7994 13.8167 28.5187 13.5376L28.3776 13.6794ZM27.4424 13.2955C27.809 13.2955 28.1336 13.4368 28.3776 13.6794L28.5187 13.5376C28.238 13.2585 27.863 13.0955 27.4424 13.0955V13.2955ZM23.2229 13.2955H27.4424V13.0955H23.2229V13.2955ZM22.5326 12.6085C22.5326 12.9904 22.8402 13.2955 23.2229 13.2955V13.0955C22.9496 13.0955 22.7326 12.8789 22.7326 12.6085H22.5326ZM22.5326 11.9781V12.6085H22.7326V11.9781H22.5326ZM22.3216 11.4403C22.4541 11.5721 22.5326 11.7632 22.5326 11.9781H22.7326C22.7326 11.7147 22.6361 11.4711 22.4626 11.2985L22.3216 11.4403ZM21.7799 11.2303C21.9965 11.2303 22.189 11.3085 22.3216 11.4403L22.4626 11.2985C22.2891 11.126 22.0443 11.0303 21.7799 11.0303V11.2303ZM15.2428 11.2303H21.7799V11.0303H15.2428V11.2303ZM14.7012 11.4403C14.8337 11.3085 15.0262 11.2303 15.2428 11.2303V11.0303C14.9785 11.0303 14.7337 11.126 14.5602 11.2985L14.7012 11.4403ZM14.4902 11.9781C14.4902 11.7632 14.5686 11.5721 14.7012 11.4403L14.5602 11.2985C14.3866 11.4711 14.2902 11.7147 14.2902 11.9781H14.4902ZM14.4902 12.6085V11.9781H14.2902V12.6085H14.4902ZM13.7999 13.2955C14.1825 13.2955 14.4902 12.9904 14.4902 12.6085H14.2902C14.2902 12.8789 14.0731 13.0955 13.7999 13.0955V13.2955ZM9.58028 13.2955H13.7999V13.0955H9.58028V13.2955ZM8.64509 13.6794C8.8891 13.4368 9.21371 13.2955 9.58028 13.2955V13.0955C9.15978 13.0955 8.78478 13.2585 8.50407 13.5376L8.64509 13.6794ZM8.25918 14.6085C8.25918 14.2446 8.40109 13.9221 8.64509 13.6794L8.50407 13.5376C8.22335 13.8167 8.05918 14.1899 8.05918 14.6085H8.25918ZM8.25918 25.4346V14.6085H8.05918V25.4346H8.25918ZM8.64509 26.3637C8.40109 26.1211 8.25918 25.7986 8.25918 25.4346H8.05918C8.05918 25.8533 8.22335 26.2264 8.50407 26.5055L8.64509 26.3637ZM9.58028 26.7477C9.21371 26.7477 8.8891 26.6063 8.64509 26.3637L8.50407 26.5055C8.78478 26.7846 9.15978 26.9477 9.58028 26.9477V26.7477ZM27.4206 26.7477H9.58028V26.9477H27.4206V26.7477ZM28.3558 26.3637C28.1118 26.6063 27.7872 26.7477 27.4206 26.7477V26.9477C27.8411 26.9477 28.2161 26.7846 28.4968 26.5055L28.3558 26.3637ZM28.7417 25.4346C28.7417 25.7986 28.5998 26.1211 28.3558 26.3637L28.4968 26.5055C28.7775 26.2264 28.9417 25.8533 28.9417 25.4346H28.7417Z" fill="#C4C4C4"/>
<path fill-rule="evenodd" clip-rule="evenodd" d="M14.6952 16.2394C15.6572 15.2829 17.0127 14.6742 18.4994 14.6742C19.9861 14.6742 21.3416 15.2829 22.3036 16.2394C23.2656 17.1959 23.8777 18.5438 23.8777 20.022C23.8777 21.5003 23.2874 22.8264 22.3036 23.8046C21.3416 24.7612 19.9861 25.3698 18.4994 25.3698C17.0127 25.3698 15.6791 24.7829 14.6952 23.8046C13.7333 22.8481 13.1211 21.5003 13.1211 20.022C13.1211 18.5438 13.7114 17.2177 14.6952 16.2394ZM18.4995 24.2174C19.6582 24.2174 20.7077 23.7391 21.4729 23C22.2381 22.2391 22.7191 21.1956 22.6972 20.0434C22.6972 18.8913 22.2381 17.8478 21.4729 17.0869C20.7077 16.3478 19.6582 15.8695 18.4995 15.8695C17.3407 15.8695 16.2913 16.326 15.5261 17.0869C14.7827 17.8478 14.3018 18.8913 14.3018 20.0434C14.3018 21.1956 14.7609 22.2391 15.5261 23C16.2913 23.7391 17.3407 24.2174 18.4995 24.2174Z" fill="white"/>
<ellipse cx="26.2832" cy="15.7174" rx="1.07129" ry="1.06522" fill="#F78E2C"/>
</svg>
