<svg width="38" height="38" viewBox="0 0 38 38" fill="none" xmlns="http://www.w3.org/2000/svg">
<rect width="38" height="38" rx="5" fill="white" fill-opacity="0.2"/>
<rect x="0.4" y="0.4" width="37.2" height="37.2" rx="4.6" stroke="#202020" stroke-opacity="0.7" stroke-width="0.8"/>
<path d="M18 19V22" stroke="#537BFB" stroke-width="1.43793" stroke-miterlimit="10" stroke-linecap="round" stroke-linejoin="round"/>
<path d="M21 19V21" stroke="#537BFB" stroke-width="1.43793" stroke-miterlimit="10" stroke-linecap="round" stroke-linejoin="round"/>
<path d="M13.7031 18.5449H22.81" stroke="#323232" stroke-width="1.4" stroke-miterlimit="10" stroke-linecap="round" stroke-linejoin="round"/>
<path d="M10.5403 21.0358C11.9433 21.0358 13.0807 19.8984 13.0807 18.4954C13.0807 17.0924 11.9433 15.9551 10.5403 15.9551C9.13735 15.9551 8 17.0924 8 18.4954C8 19.8984 9.13735 21.0358 10.5403 21.0358Z" stroke="#323232" stroke-width="1.4" stroke-miterlimit="10" stroke-linecap="round" stroke-linejoin="round"/>
<path d="M10.1086 13.6556C11.882 10.3004 15.381 7.99976 19.4551 7.99976C25.3027 7.99976 30 12.697 30 18.5446C30 24.3922 25.3027 29.0894 19.4551 29.0894C15.333 29.0894 11.7382 26.6929 10.0127 23.2418" stroke="#323232" stroke-width="1.43793" stroke-miterlimit="10" stroke-linecap="round" stroke-linejoin="round"/>
</svg>
