<svg width="38" height="38" viewBox="0 0 38 38" fill="none" xmlns="http://www.w3.org/2000/svg">
<rect width="38" height="38" rx="5" fill="white" fill-opacity="0.2"/>
<rect x="0.4" y="0.4" width="37.2" height="37.2" rx="4.6" stroke="#202020" stroke-opacity="0.7" stroke-width="0.8"/>
<g opacity="0.8">
<ellipse cx="1.3599" cy="1.22356" rx="1.3599" ry="1.22356" transform="matrix(-1 0 0 1 25.8408 16.3402)" fill="#F78E2C"/>
<ellipse cx="1.3599" cy="1.22356" rx="1.3599" ry="1.22356" transform="matrix(-1 0 0 1 20.4014 16.3402)" fill="#F78E2C"/>
<ellipse cx="1.3599" cy="1.22356" rx="1.3599" ry="1.22356" transform="matrix(-1 0 0 1 14.9619 16.3402)" fill="#F78E2C"/>
<mask id="path-6-inside-1_118_72" fill="white">
<path fill-rule="evenodd" clip-rule="evenodd" d="M22.9249 30.6658C23.262 31.0156 23.769 31.1204 24.2094 30.931C24.6498 30.7416 24.937 30.2955 24.937 29.8006V26.0428C28.93 25.4472 32.0088 21.8723 32.0088 17.5649C32.0088 12.8422 28.3076 9 23.7584 9H14.3293C9.7367 9 6.00028 12.8422 6.00028 17.5649C6.00028 22.2876 9.7367 26.1299 14.3293 26.1299H18.5556L22.9249 30.6658ZM23.7582 11.4453C27.0077 11.4453 29.6514 14.1898 29.6514 17.5631C29.6514 20.9365 27.0077 23.6809 23.7582 23.6809C23.1073 23.6809 22.5796 24.2288 22.5796 24.9045V26.8448L19.877 24.0393C19.6561 23.8098 19.3563 23.6809 19.0437 23.6809H14.3291C11.0363 23.6809 8.35738 20.9365 8.35738 17.5631C8.35738 14.1898 11.0363 11.4453 14.3291 11.4453H23.7582Z"/>
</mask>
<path fill-rule="evenodd" clip-rule="evenodd" d="M22.9249 30.6658C23.262 31.0156 23.769 31.1204 24.2094 30.931C24.6498 30.7416 24.937 30.2955 24.937 29.8006V26.0428C28.93 25.4472 32.0088 21.8723 32.0088 17.5649C32.0088 12.8422 28.3076 9 23.7584 9H14.3293C9.7367 9 6.00028 12.8422 6.00028 17.5649C6.00028 22.2876 9.7367 26.1299 14.3293 26.1299H18.5556L22.9249 30.6658ZM23.7582 11.4453C27.0077 11.4453 29.6514 14.1898 29.6514 17.5631C29.6514 20.9365 27.0077 23.6809 23.7582 23.6809C23.1073 23.6809 22.5796 24.2288 22.5796 24.9045V26.8448L19.877 24.0393C19.6561 23.8098 19.3563 23.6809 19.0437 23.6809H14.3291C11.0363 23.6809 8.35738 20.9365 8.35738 17.5631C8.35738 14.1898 11.0363 11.4453 14.3291 11.4453H23.7582Z" fill="black"/>
<path d="M24.2094 30.931L24.0513 30.5635L24.0513 30.5635L24.2094 30.931ZM22.9249 30.6658L22.6369 30.9433L22.6368 30.9433L22.9249 30.6658ZM24.937 26.0428H24.537V25.698L24.878 25.6471L24.937 26.0428ZM18.5556 26.1299V25.7299H18.7257L18.8437 25.8524L18.5556 26.1299ZM22.5796 26.8448H22.9796V27.8366L22.2915 27.1223L22.5796 26.8448ZM19.877 24.0393L19.5889 24.3168L19.5889 24.3167L19.877 24.0393ZM24.3674 31.2984C23.7714 31.5548 23.0873 31.4108 22.6369 30.9433L23.213 30.3882C23.4367 30.6204 23.7667 30.6859 24.0513 30.5635L24.3674 31.2984ZM25.337 29.8006C25.337 30.4486 24.9607 31.0433 24.3674 31.2984L24.0513 30.5635C24.3389 30.4398 24.537 30.1423 24.537 29.8006H25.337ZM25.337 26.0428V29.8006H24.537V26.0428H25.337ZM32.4088 17.5649C32.4088 22.0623 29.1928 25.8124 24.996 26.4384L24.878 25.6471C28.6671 25.082 31.6088 21.6823 31.6088 17.5649H32.4088ZM23.7584 8.6C28.5425 8.6 32.4088 12.6356 32.4088 17.5649H31.6088C31.6088 13.0489 28.0728 9.4 23.7584 9.4V8.6ZM14.3293 8.6H23.7584V9.4H14.3293V8.6ZM5.60028 17.5649C5.60028 12.6319 9.50533 8.6 14.3293 8.6V9.4C9.96808 9.4 6.40028 13.0525 6.40028 17.5649H5.60028ZM14.3293 26.5299C9.50533 26.5299 5.60028 22.498 5.60028 17.5649H6.40028C6.40028 22.0773 9.96808 25.7299 14.3293 25.7299V26.5299ZM18.5556 26.5299H14.3293V25.7299H18.5556V26.5299ZM22.6368 30.9433L18.2675 26.4074L18.8437 25.8524L23.213 30.3883L22.6368 30.9433ZM29.2514 17.5631C29.2514 14.3964 26.7728 11.8453 23.7582 11.8453V11.0453C27.2426 11.0453 30.0514 13.9831 30.0514 17.5631H29.2514ZM23.7582 23.2809C26.7728 23.2809 29.2514 20.7298 29.2514 17.5631H30.0514C30.0514 21.1432 27.2426 24.0809 23.7582 24.0809V23.2809ZM22.1796 24.9045C22.1796 24.0221 22.8724 23.2809 23.7582 23.2809V24.0809C23.3422 24.0809 22.9796 24.4354 22.9796 24.9045H22.1796ZM22.1796 26.8448V24.9045H22.9796V26.8448H22.1796ZM20.1651 23.7618L22.8676 26.5673L22.2915 27.1223L19.5889 24.3168L20.1651 23.7618ZM19.0437 23.2809C19.4673 23.2809 19.8704 23.4557 20.1652 23.7618L19.5889 24.3167C19.4417 24.1639 19.2453 24.0809 19.0437 24.0809V23.2809ZM14.3291 23.2809H19.0437V24.0809H14.3291V23.2809ZM8.75738 17.5631C8.75738 20.7247 11.2663 23.2809 14.3291 23.2809V24.0809C10.8064 24.0809 7.95738 21.1482 7.95738 17.5631H8.75738ZM14.3291 11.8453C11.2663 11.8453 8.75738 14.4015 8.75738 17.5631H7.95738C7.95738 13.978 10.8064 11.0453 14.3291 11.0453V11.8453ZM23.7582 11.8453H14.3291V11.0453H23.7582V11.8453Z" fill="white" mask="url(#path-6-inside-1_118_72)"/>
</g>
</svg>
