<svg width="25" height="25" viewBox="0 0 25 25" fill="none" xmlns="http://www.w3.org/2000/svg">
<path d="M15.6198 17.3105L17.3196 15.6106L13.92 12.2109L17.3196 8.81125L15.6198 7.11141L12.2201 10.5111L8.82042 7.11141L7.12058 8.81125L10.5203 12.2109L7.12058 15.6106L8.82042 17.3105L12.2201 13.9108L15.6198 17.3105ZM20.7193 20.7102C19.5436 21.8859 18.2155 22.7675 16.7349 23.3551C15.2549 23.9433 13.75 24.2373 12.2201 24.2373C10.6903 24.2373 9.18532 23.9433 7.70533 23.3551C6.22476 22.7675 4.89662 21.8859 3.72089 20.7102C2.54517 19.5344 1.66352 18.2063 1.07594 16.7257C0.487793 15.2457 0.19372 13.7408 0.19372 12.2109C0.19372 10.6811 0.48751 9.17587 1.07509 7.6953C1.66323 6.21531 2.54517 4.88745 3.72089 3.71172C4.89662 2.536 6.22448 1.65406 7.70448 1.06592C9.18504 0.478339 10.6903 0.184548 12.2201 0.184548C13.75 0.184549 15.2549 0.478622 16.7349 1.06677C18.2155 1.65435 19.5436 2.536 20.7193 3.71172C21.895 4.88745 22.7767 6.21559 23.3643 7.69616C23.9524 9.17615 24.2465 10.6811 24.2465 12.2109C24.2465 13.7408 23.9524 15.2457 23.3643 16.7257C22.7767 18.2063 21.895 19.5344 20.7193 20.7102ZM19.0195 19.0103C20.9176 17.1122 21.8667 14.8457 21.8667 12.2109C21.8667 9.57618 20.9176 7.30972 19.0195 5.41157C17.1213 3.51341 14.8549 2.56433 12.2201 2.56433C9.58535 2.56433 7.3189 3.51341 5.42074 5.41157C3.52258 7.30972 2.5735 9.57618 2.5735 12.2109C2.5735 14.8457 3.52258 17.1122 5.42074 19.0103C7.3189 20.9085 9.58535 21.8575 12.2201 21.8575C14.8549 21.8575 17.1213 20.9085 19.0195 19.0103Z" fill="black" fill-opacity="0.6"/>
</svg>
