<svg width="38" height="38" viewBox="0 0 38 38" fill="none" xmlns="http://www.w3.org/2000/svg">
<rect width="38" height="38" rx="5" fill="white" fill-opacity="0.2"/>
<rect x="0.4" y="0.4" width="37.2" height="37.2" rx="4.6" stroke="#202020" stroke-opacity="0.7" stroke-width="0.8"/>
<path fill-rule="evenodd" clip-rule="evenodd" d="M23.9261 27.1999C23.9261 28.1924 23.1411 28.9999 22.1761 28.9999C18.9345 28.9999 15.6044 27.5004 13.0398 24.886C10.4725 22.2687 9 18.8662 9 15.551C9 14.5632 9.78878 13.7595 10.7583 13.7595H13.1027C13.3549 13.7595 13.5787 13.9246 13.6586 14.1694L14.8308 17.7609C14.8882 17.9367 14.863 18.1298 14.7626 18.2839L13.7684 19.8107C14.5211 21.4208 16.4135 23.341 18.0147 24.1188L19.5066 23.1005C19.6573 22.9978 19.8457 22.972 20.0175 23.0307L23.5258 24.2307C23.7649 24.3125 23.9261 24.5417 23.9261 24.7998V27.1999ZM12.6806 14.9596H10.7583C10.4296 14.9596 10.1722 15.2194 10.1722 15.5511C10.1722 21.8472 16.0059 27.7999 22.1761 27.7999C22.5001 27.7999 22.7539 27.5363 22.7539 27.1999V25.2319L19.9181 24.2619L18.3985 25.299C18.238 25.4086 18.0349 25.4302 17.8557 25.3569C16.8758 24.9556 15.7746 24.1658 14.7548 23.133C13.7283 22.0934 12.9483 20.9715 12.5586 19.974C12.4869 19.7905 12.508 19.5827 12.6151 19.4183L13.6281 17.8627L12.6806 14.9596Z" fill="#323232"/>
<path fill-rule="evenodd" clip-rule="evenodd" d="M20.5895 21.6246C20.4218 21.7961 20.1697 21.8475 19.9507 21.7546C19.7317 21.6617 19.5889 21.443 19.5889 21.2003V19.3575C17.6033 19.0655 16.0723 17.3124 16.0723 15.2001C16.0723 12.8842 17.9128 11 20.175 11H24.8638C27.1476 11 29.0056 12.8842 29.0056 15.2001C29.0056 17.5161 27.1476 19.4002 24.8638 19.4002H22.7622L20.5895 21.6246ZM20.1751 12.1995C18.5592 12.1995 17.2446 13.5453 17.2446 15.1996C17.2446 16.8538 18.5592 18.1996 20.1751 18.1996C20.4988 18.1996 20.7612 18.4683 20.7612 18.7996V19.7512L22.1051 18.3754C22.215 18.2628 22.3641 18.1996 22.5195 18.1996H24.864C26.5014 18.1996 27.8336 16.8538 27.8336 15.1996C27.8336 13.5453 26.5014 12.1995 24.864 12.1995H20.1751Z" fill="#323232"/>
<ellipse cx="20.175" cy="15.1999" rx="0.586105" ry="0.600016" fill="#F78E2C"/>
<ellipse cx="22.5197" cy="15.1999" rx="0.586105" ry="0.600016" fill="#F78E2C"/>
<ellipse cx="24.8634" cy="15.1999" rx="0.586105" ry="0.600016" fill="#F78E2C"/>
</svg>
