<svg width="38" height="38" viewBox="0 0 38 38" fill="none" xmlns="http://www.w3.org/2000/svg">
<rect width="38" height="38" rx="5" fill="white" fill-opacity="0.2"/>
<rect x="0.4" y="0.4" width="37.2" height="37.2" rx="4.6" stroke="#202020" stroke-opacity="0.7" stroke-width="0.8"/>
<path fill-rule="evenodd" clip-rule="evenodd" d="M26.0624 12.9377C25.4577 12.333 24.6538 12 23.7987 12C22.9436 12 22.1397 12.333 21.535 12.9377L12.5883 21.8844C12.5122 21.9605 12.457 22.055 12.4281 22.1588L11.0229 27.2074C10.9623 27.4252 11.024 27.6587 11.1842 27.8181C11.303 27.9362 11.4621 28 11.6251 28C11.682 28 11.7394 27.9922 11.7958 27.9762L16.8444 26.5421C17.0574 26.4816 17.2226 26.3129 17.2784 26.0986C17.3343 25.8843 17.2726 25.6565 17.1163 25.4996L13.9334 22.3071L21.3495 14.891L24.1076 17.649L18.4302 23.3109C18.1858 23.5546 18.1853 23.9503 18.4291 24.1948C18.6728 24.4392 19.0686 24.4397 19.3129 24.196L26.0623 17.465C26.667 16.8603 27 16.0564 27 15.2013C27 14.3462 26.667 13.5423 26.0624 12.9377ZM15.481 25.6294L12.5258 26.4688L13.3534 23.4953L15.481 25.6294ZM24.9927 16.7664L25.1791 16.5805C25.547 16.2125 25.75 15.7225 25.75 15.2013C25.75 14.6801 25.547 14.1901 25.1785 13.8216C24.8099 13.453 24.3199 13.25 23.7987 13.25C23.2775 13.25 22.7875 13.453 22.419 13.8215L22.2334 14.0071L24.9927 16.7664Z" fill="#323232"/>
</svg>
