<svg width="22" height="18" viewBox="0 0 22 18" fill="none" xmlns="http://www.w3.org/2000/svg">
<path d="M21.4798 8.3119C21.699 8.57949 21.699 8.98087 21.5017 9.27076C21.3043 9.53834 16.9629 15.4698 10.7139 15.4698C10.0342 15.4698 9.33253 15.4029 8.60896 15.2469C8.19236 15.1577 7.92924 14.734 8.01695 14.3326C8.10466 13.9312 8.52126 13.6413 8.91593 13.7305C14.2879 14.8901 18.6293 10.3188 19.9011 8.82478C19.0021 7.75443 18.0812 6.84018 17.1603 6.12662C16.8314 5.85903 16.7656 5.36845 17.0287 5.03397C17.2918 4.69949 17.7742 4.63259 18.1031 4.90018C19.2652 5.79213 20.4054 6.95167 21.4798 8.3119ZM19.2652 0.217414C19.5722 0.529598 19.5722 1.02017 19.2652 1.31006L3.47818 17.3652C3.3247 17.5213 3.12736 17.5882 2.93002 17.5882C2.73269 17.5882 2.53535 17.5213 2.38186 17.3652C2.07489 17.0531 2.07489 16.5625 2.38186 16.2726L4.9034 13.7082C3.28085 12.6825 1.68022 11.2108 0.167297 9.29306C-0.051967 9.02547 -0.051967 8.62409 0.145371 8.3342C0.21115 8.24501 1.8337 6.01512 4.4868 4.25351C8.0608 1.88983 11.8102 1.48845 15.3184 3.11627L18.1689 0.217414C18.4758 -0.0724713 18.9582 -0.0724713 19.2652 0.217414ZM6.04357 12.571L7.70998 10.8763C6.76714 9.40455 6.94256 7.41995 8.19236 6.12662C9.46409 4.83328 11.4155 4.67719 12.8408 5.63604L14.1344 4.32041C11.2621 3.18316 8.30199 3.60684 5.34193 5.54684C3.60974 6.68409 2.33801 8.08892 1.746 8.80248C3.12736 10.4526 4.5745 11.7236 6.04357 12.571ZM11.7225 6.79558C10.9112 6.4165 9.94647 6.57259 9.28868 7.24156C8.63089 7.91053 8.4774 8.91397 8.85015 9.71673L11.7225 6.79558Z" fill="#7E766D"/>
</svg>
