<svg width="38" height="38" viewBox="0 0 38 38" fill="none" xmlns="http://www.w3.org/2000/svg">
<rect width="38" height="38" rx="5" fill="white" fill-opacity="0.2"/>
<rect x="0.4" y="0.4" width="37.2" height="37.2" rx="4.6" stroke="#202020" stroke-opacity="0.7" stroke-width="0.8"/>
<path d="M19 10.8438C23.5 10.8438 27.1562 14.1738 27.1562 18.2669C27.1562 22.36 23.5 25.6919 19 25.6919C18.2596 25.6921 17.5221 25.6001 16.8044 25.4181L16.3581 25.3056L15.9494 25.5156L14.2619 26.3837V24.3325L13.7819 23.9575C11.9125 22.5494 10.8438 20.4719 10.8438 18.2669C10.8438 14.1738 14.5 10.8438 19 10.8438ZM19 9.625C13.8231 9.625 9.625 13.495 9.625 18.2669C9.625 20.9519 10.9525 23.35 13.0356 24.9363V28.375L16.5044 26.5975C17.32 26.8052 18.1583 26.9104 19 26.9106C24.1769 26.9106 28.375 23.0406 28.375 18.2687C28.375 13.4969 24.1769 9.625 19 9.625Z" fill="#333333"/>
<path d="M13.2227 20.8864L18.0189 15.7414L20.4545 18.1939L24.7764 15.8314L19.9614 21.087L17.5989 18.5051L13.2227 20.8864Z" fill="#537BFB"/>
</svg>
