<svg width="67" height="67" viewBox="0 0 67 67" fill="none" xmlns="http://www.w3.org/2000/svg">
<path fill-rule="evenodd" clip-rule="evenodd" d="M67 56.1387V48.6143C67 47.6748 66.2383 46.9131 65.2988 46.9131C64.3593 46.9131 63.5977 47.6748 63.5977 48.6143V56.1387C63.5977 60.2515 60.2515 63.5977 56.1387 63.5977H48.6143C47.6748 63.5977 46.9131 64.3593 46.9131 65.2988C46.9131 66.2383 47.6748 67 48.6143 67H56.1387C62.1276 67 67 62.1276 67 56.1387ZM20.0869 65.2988C20.0869 64.3593 19.3252 63.5977 18.3857 63.5977H10.8613C6.74848 63.5977 3.40234 60.2515 3.40234 56.1387V48.6143C3.40234 47.6748 2.64068 46.9131 1.70117 46.9131C0.761667 46.9131 0 47.6748 0 48.6143V56.1387C0 62.1276 4.87242 67 10.8613 67H18.3857C19.3252 67 20.0869 66.2383 20.0869 65.2988ZM3.40234 18.3857V10.8613C3.40234 6.74842 6.74848 3.40234 10.8613 3.40234H18.3857C19.3252 3.40234 20.0869 2.64068 20.0869 1.70117C20.0869 0.761667 19.3252 0 18.3857 0H10.8613C4.87242 0 0 4.87235 0 10.8613V18.3857C0 19.3252 0.761667 20.0869 1.70117 20.0869C2.64068 20.0869 3.40234 19.3252 3.40234 18.3857ZM67 18.3857V10.8613C67 4.87235 62.1276 0 56.1387 0H48.6143C47.6748 0 46.9131 0.761667 46.9131 1.70117C46.9131 2.64068 47.6748 3.40234 48.6143 3.40234H56.1387C60.2515 3.40234 63.5977 6.74842 63.5977 10.8613V18.3857C63.5977 19.3252 64.3593 20.0869 65.2988 20.0869C66.2383 20.0869 67 19.3252 67 18.3857ZM45.2397 49.5194C45.9565 48.8574 46.0008 47.7397 45.3387 47.023C44.6767 46.3063 43.5591 46.262 42.8423 46.9239C40.2921 49.2797 36.9741 50.577 33.4998 50.577C30.0254 50.577 26.7074 49.2797 24.1572 46.9239C23.4403 46.262 22.3229 46.3064 21.6608 47.023C20.9988 47.7397 21.0431 48.8574 21.7598 49.5194C24.9648 52.4798 29.1341 54.1102 33.4998 54.1102C37.8654 54.1102 42.0347 52.4798 45.2397 49.5194ZM37.0332 37.8184V25.2559C37.0332 24.2802 36.2423 23.4893 35.2666 23.4893C34.2909 23.4893 33.5 24.2802 33.5 25.2559V37.8184C33.5 38.3595 33.0597 38.7998 32.5186 38.7998H31.0791C30.1034 38.7998 29.3125 39.5907 29.3125 40.5664C29.3125 41.5421 30.1034 42.333 31.0791 42.333H32.5186C35.008 42.333 37.0332 40.3078 37.0332 37.8184ZM49.2031 30.1958V25.1577C49.2031 24.2363 48.4561 23.4893 47.5347 23.4893C46.6132 23.4893 45.8662 24.2363 45.8662 25.1577V30.1958C45.8662 31.1172 46.6132 31.8643 47.5347 31.8643C48.4561 31.8643 49.2031 31.1172 49.2031 30.1958ZM19.8579 31.8643C18.9365 31.8643 18.1895 31.1172 18.1895 30.1958V25.1577C18.1895 24.2363 18.9365 23.4893 19.8579 23.4893C20.7794 23.4893 21.5264 24.2363 21.5264 25.1577V30.1958C21.5264 31.1172 20.7794 31.8643 19.8579 31.8643Z" fill="#537BFB"/>
</svg>
