<svg width="26" height="30" viewBox="0 0 26 30" fill="none" xmlns="http://www.w3.org/2000/svg">
    <path d="M8.24512 6C4.69877 8.30839 3.10194 7.31082 2.74682 6.52348" stroke="black" stroke-linecap="round" />
    <path d="M18 6C21.5463 8.30839 23.1432 7.31082 23.4983 6.52348" stroke="black" stroke-linecap="round" />
    <path
        d="M17.8491 5.5C17.8491 8.2813 15.6917 10.5 13.074 10.5C10.4562 10.5 8.29883 8.2813 8.29883 5.5C8.29883 2.7187 10.4562 0.5 13.074 0.5C15.6917 0.5 17.8491 2.7187 17.8491 5.5Z"
        stroke="black" />
    <path
        d="M1.9143 19.0069C2.21398 16.7503 4.13851 15.0645 6.41495 15.0645H19.1058C21.3078 15.0645 23.1924 16.6447 23.5764 18.813L24.458 23.7919C24.9504 26.5728 22.8115 29.1237 19.9874 29.1237H5.75376C3.00887 29.1237 0.89175 26.7068 1.2531 23.9858L1.9143 19.0069Z"
        stroke="black" />
</svg>
