<svg width="73" height="81" viewBox="0 0 73 81" fill="none" xmlns="http://www.w3.org/2000/svg">
<path d="M21.7484 66.1021C19.3626 61.8235 18.1009 56.579 18.1009 50.9007C18.1009 41.3578 26.362 33.5897 36.4964 33.5897C46.6503 33.5897 54.8918 41.358 54.8918 50.9007C54.8918 51.9851 55.7791 52.8724 56.8636 52.8724C57.948 52.8724 58.8353 51.9851 58.8353 50.9007C58.8353 39.1693 48.8192 29.6462 36.4965 29.6462C24.1739 29.6462 14.1575 39.1891 14.1575 50.9007C14.1575 57.2494 15.5968 63.184 18.3177 68.0342C20.9794 72.786 22.8328 74.9745 26.2437 78.4248C26.638 78.819 27.131 79.0162 27.6435 79.0162C28.1365 79.0162 28.6491 78.8388 29.004 78.4248C29.7927 77.6756 29.7927 76.4137 29.0238 75.6447C25.9874 72.5889 24.2918 70.637 21.7484 66.1021Z" fill="#537BFB" stroke="#537BFB" stroke-width="0.928559"/>
<path d="M14.5729 10.5033C21.3357 6.81624 28.7096 4.94323 36.5371 4.94323C44.3842 4.94323 50.9498 6.6192 58.5013 10.5231C58.7971 10.6611 59.0928 10.7399 59.4084 10.7399V10.7399C60.1182 10.7399 60.8082 10.3456 61.1631 9.67519C61.656 8.70902 61.2814 7.50644 60.3152 7.01346C52.2709 2.85341 44.9363 1 36.5371 1C28.059 1 20.0344 3.03086 12.6801 7.03324C11.714 7.56559 11.3788 8.74858 11.8914 9.71475C12.4237 10.6807 13.6067 11.016 14.5729 10.5033Z" fill="#537BFB" stroke="#537BFB" stroke-width="0.928559"/>
<path d="M36.3599 20.0466C23.6427 20.0466 12.0101 27.1643 6.74577 38.1661C4.95151 41.8926 4.04468 46.1907 4.04468 50.9226C4.04468 56.2461 4.99107 61.3329 6.92322 66.5183C7.31749 67.5436 8.44133 68.0562 9.46665 67.6815C10.492 67.2873 11.0045 66.1634 10.6299 65.1381C8.28348 58.8487 8.00751 53.9984 8.00751 50.9226C8.00751 46.7822 8.77645 43.0558 10.3143 39.8617C14.928 30.2006 25.1608 23.9703 36.3795 23.9703C52.133 23.9703 64.9486 36.0565 64.9486 50.9226C64.9486 55.1616 61.2616 58.5923 56.7466 58.5923C52.2317 58.5923 48.5447 55.1418 48.5447 50.9226C48.5447 44.5147 43.1029 39.3096 36.3992 39.3096C29.6956 39.3096 24.2538 44.5147 24.2538 50.9226C24.2538 58.7106 27.2902 66.0255 32.7911 71.5066C37.0499 75.7456 41.151 78.0722 47.4404 79.7876C47.5981 79.8467 47.7755 79.8665 47.953 79.8665C48.8204 79.8665 49.6092 79.2948 49.8458 78.4271C50.1415 77.3822 49.5106 76.2978 48.4655 76.002C42.9055 74.4839 39.2776 72.4333 35.5512 68.7266C30.7994 63.9947 28.1773 57.6657 28.1773 50.9424C28.1773 46.7034 31.8643 43.2728 36.3793 43.2728C40.8942 43.2728 44.5813 46.7232 44.5813 50.9424C44.5813 57.3503 50.0428 62.5555 56.7267 62.5555C63.4106 62.5555 68.8721 57.3503 68.8721 50.9424C68.8723 33.9074 54.2821 20.0466 36.3599 20.0466Z" fill="#537BFB" stroke="#537BFB" stroke-width="0.928559"/>
<path d="M71.6314 28.208C67.7077 22.7268 62.7392 18.4285 56.844 15.3923C44.4226 9.00418 28.5706 9.02396 16.169 15.4317C10.254 18.4877 5.2657 22.8254 1.36184 28.346C0.730974 29.2333 0.947794 30.4556 1.83504 31.0867C2.18993 31.3233 2.5842 31.4416 2.97865 31.4416C3.58993 31.4416 4.20101 31.1656 4.59547 30.6333C8.12465 25.6254 12.6398 21.7017 17.983 18.9415C29.2806 13.1055 43.7328 13.0857 55.0499 18.9021C60.3734 21.623 64.8687 25.5268 68.4177 30.4954C69.0486 31.3826 70.2907 31.5799 71.178 30.9488C72.0652 30.3176 72.2624 29.0952 71.6314 28.208Z" fill="#537BFB" stroke="#537BFB" stroke-width="0.928559"/>
<path d="M60.0195 67.4073C58.4422 67.6832 56.8452 67.7819 55.8988 67.7819C51.9556 67.7819 48.6826 66.8553 45.9026 64.9625C41.1115 61.7093 38.2525 56.4648 38.2525 50.9243C38.2525 49.8399 37.3653 48.9526 36.2808 48.9526C35.1963 48.9526 34.3091 49.8399 34.3091 50.9243C34.3091 57.7857 37.8187 64.2527 43.6745 68.2354C47.0854 70.5422 51.2062 71.7252 55.8986 71.7252C56.4507 71.7252 58.4027 71.7054 60.7095 71.2913C61.7742 71.0941 62.5038 70.069 62.3065 69.0043C62.1093 67.9396 61.0842 67.2102 60.0195 67.4073Z" fill="#537BFB" stroke="#537BFB" stroke-width="0.928559"/>
</svg>
