<svg width="38" height="38" viewBox="0 0 38 38" fill="none" xmlns="http://www.w3.org/2000/svg">
<rect width="38" height="38" rx="5" fill="white" fill-opacity="0.2"/>
<rect x="0.4" y="0.4" width="37.2" height="37.2" rx="4.6" stroke="#202020" stroke-opacity="0.7" stroke-width="0.8"/>
<path fill-rule="evenodd" clip-rule="evenodd" d="M12.7544 9.0207L28.0041 10.7387C29.2342 10.8835 30.1181 11.9829 29.9871 13.205L28.7023 24.4553C28.6347 25.0384 28.3449 25.5737 27.8924 25.9517C27.5735 26.171 27.212 26.322 26.831 26.395V26.8384C26.831 28.0577 25.7138 28.9998 24.4849 28.9998H9.15138C9.12316 29.0002 9.09488 29 9.06665 28.9993C7.89471 28.9686 6.9698 28.0011 7.00075 26.8384V15.5049C7.00075 14.2856 7.92245 13.205 9.15138 13.205H10.0173L10.2965 10.9327C10.3578 10.3631 10.6502 9.84281 11.1065 9.49179C11.5628 9.10864 12.1625 8.93722 12.7544 9.0207ZM24.4847 27.8908C25.0992 27.8908 25.7137 27.4475 25.7137 26.8379H25.7137V21.4621L20.2115 24.621C19.807 24.8623 19.3428 24.987 18.8709 24.9813C18.2673 24.972 17.6853 24.7568 17.223 24.3716L14.1786 21.7115C13.6995 21.2674 12.967 21.2322 12.4469 21.6283L8.11778 24.7873V26.8379C8.11618 26.8662 8.1158 26.8946 8.11666 26.923C8.13296 27.4737 8.59614 27.907 9.15121 27.8908H24.4847ZM25.714 20.1602L19.6253 23.6794C19.1025 23.9867 18.4407 23.9311 17.9774 23.5409L14.9051 20.8529C14.0246 20.1023 12.7376 20.0562 11.8049 20.7421L8.11816 23.4023V15.5049C8.11816 14.8952 8.53713 14.3134 9.15159 14.3134H24.4851C25.1416 14.3404 25.6718 14.8544 25.714 15.5049V20.1602ZM28.8697 13.0672L28.8709 13.0562C28.9292 12.4467 28.4785 11.9058 27.8644 11.8479L12.6425 10.1022C12.3457 10.0775 12.0496 10.1559 11.8046 10.3239C11.5877 10.5109 11.4402 10.7645 11.3856 11.0444L11.1343 13.2058H24.4847C25.7575 13.2344 26.7867 14.2433 26.8308 15.5057V25.2875C26.8308 25.2603 26.891 25.2332 26.9655 25.1996C27.0433 25.1646 27.1369 25.1224 27.1939 25.0657C27.4252 24.8856 27.5593 24.6093 27.557 24.3176L28.8697 13.0672Z" fill="#323232"/>
<path d="M28.0041 10.7387L28.01 10.689L28.0097 10.689L28.0041 10.7387ZM12.7544 9.0207L12.7474 9.07023L12.7488 9.07039L12.7544 9.0207ZM29.9871 13.205L30.0368 13.2106L30.0369 13.2103L29.9871 13.205ZM28.7023 24.4553L28.752 24.4611L28.752 24.461L28.7023 24.4553ZM27.8924 25.9517L27.9208 25.9931L27.9244 25.9901L27.8924 25.9517ZM26.831 26.395L26.8216 26.3459L26.781 26.3537V26.395H26.831ZM9.15138 28.9998V28.9498L9.15073 28.9498L9.15138 28.9998ZM9.06665 28.9993L9.06796 28.9493H9.06796L9.06665 28.9993ZM7.00075 26.8384L7.05075 26.8397V26.8384H7.00075ZM10.0173 13.205V13.255H10.0615L10.0669 13.2111L10.0173 13.205ZM10.2965 10.9327L10.3462 10.9388L10.3463 10.9381L10.2965 10.9327ZM11.1065 9.49179L11.137 9.53146L11.1387 9.53009L11.1065 9.49179ZM25.7137 26.8379V26.7879H25.6637V26.8379H25.7137ZM25.7137 26.8379V26.8879H25.7637V26.8379H25.7137ZM25.7137 21.4621H25.7637V21.3757L25.6888 21.4187L25.7137 21.4621ZM20.2115 24.621L20.1866 24.5777L20.1859 24.5781L20.2115 24.621ZM18.8709 24.9813L18.8701 25.0313L18.8703 25.0313L18.8709 24.9813ZM17.223 24.3716L17.1901 24.4093L17.191 24.4101L17.223 24.3716ZM14.1786 21.7115L14.1446 21.7481L14.1457 21.7491L14.1786 21.7115ZM12.4469 21.6283L12.4764 21.6687L12.4772 21.6681L12.4469 21.6283ZM8.11778 24.7873L8.08831 24.7469L8.06778 24.7619V24.7873H8.11778ZM8.11778 26.8379L8.16778 26.8407V26.8379H8.11778ZM8.11666 26.923L8.16664 26.9215L8.16663 26.9215L8.11666 26.923ZM9.15121 27.8908V27.8408L9.14975 27.8409L9.15121 27.8908ZM19.6253 23.6794L19.6003 23.6361L19.6 23.6363L19.6253 23.6794ZM25.714 20.1602L25.7391 20.2035L25.764 20.189V20.1602H25.714ZM17.9774 23.5409L17.9445 23.5785L17.9452 23.5791L17.9774 23.5409ZM14.9051 20.8529L14.9381 20.8153L14.9376 20.8149L14.9051 20.8529ZM11.8049 20.7421L11.8342 20.7826L11.8345 20.7824L11.8049 20.7421ZM8.11816 23.4023H8.06816V23.5L8.14742 23.4428L8.11816 23.4023ZM24.4851 14.3134L24.4872 14.2634H24.4851V14.3134ZM25.714 15.5049H25.7642L25.7639 15.5016L25.714 15.5049ZM28.8709 13.0562L28.9206 13.0612L28.9206 13.0609L28.8709 13.0562ZM28.8697 13.0672L28.9194 13.073L28.9195 13.0723L28.8697 13.0672ZM27.8644 11.8479L27.8587 11.8976L27.8597 11.8977L27.8644 11.8479ZM12.6425 10.1022L12.6482 10.0525L12.6467 10.0524L12.6425 10.1022ZM11.8046 10.3239L11.7762 10.2824L11.772 10.286L11.8046 10.3239ZM11.3856 11.0444L11.3364 11.0348L11.336 11.0386L11.3856 11.0444ZM11.1343 13.2058L11.0846 13.2L11.0781 13.2558H11.1343V13.2058ZM24.4847 13.2058L24.4858 13.1558H24.4847V13.2058ZM26.8308 15.5057H26.8809L26.8808 15.504L26.8308 15.5057ZM26.9655 25.1996L26.9449 25.1541L26.9655 25.1996ZM27.1939 25.0657L27.163 25.026L27.1587 25.0303L27.1939 25.0657ZM27.557 24.3176L27.507 24.3117L27.507 24.318L27.557 24.3176ZM28.0097 10.689L12.76 8.97101L12.7488 9.07039L27.9985 10.7884L28.0097 10.689ZM30.0369 13.2103C30.1708 11.9606 29.2669 10.8371 28.01 10.689L27.9983 10.7884C29.2014 10.93 30.0654 12.0052 29.9374 13.1996L30.0369 13.2103ZM28.752 24.461L30.0368 13.2106L29.9375 13.1993L28.6527 24.4497L28.752 24.461ZM27.9244 25.9901C28.3867 25.6039 28.6828 25.0569 28.752 24.4611L28.6527 24.4496C28.5865 25.0198 28.3031 25.5435 27.8603 25.9133L27.9244 25.9901ZM26.8405 26.4442C27.2282 26.3698 27.5961 26.2161 27.9207 25.9929L27.864 25.9105C27.5509 26.1259 27.1959 26.2742 26.8216 26.3459L26.8405 26.4442ZM26.881 26.8384V26.395H26.781V26.8384H26.881ZM24.4849 29.0498C25.7362 29.0498 26.881 28.0903 26.881 26.8384H26.781C26.781 28.025 25.6915 28.9498 24.4849 28.9498V29.0498ZM9.15138 29.0498H24.4849V28.9498H9.15138V29.0498ZM9.06534 29.0493C9.09425 29.05 9.12319 29.0502 9.15204 29.0498L9.15073 28.9498C9.12313 28.9502 9.0955 28.95 9.06796 28.9493L9.06534 29.0493ZM6.95077 26.8371C6.91907 28.0277 7.86616 29.0178 9.06534 29.0493L9.06796 28.9493C7.92326 28.9193 7.02053 27.9744 7.05074 26.8397L6.95077 26.8371ZM6.95075 15.5049V26.8384H7.05075V15.5049H6.95075ZM9.15138 13.155C7.89045 13.155 6.95075 14.2626 6.95075 15.5049H7.05075C7.05075 14.3087 7.95446 13.255 9.15138 13.255V13.155ZM10.0173 13.155H9.15138V13.255H10.0173V13.155ZM10.2469 10.9266L9.96764 13.1989L10.0669 13.2111L10.3462 10.9388L10.2469 10.9266ZM11.076 9.45216C10.609 9.81146 10.3095 10.3441 10.2468 10.9274L10.3463 10.9381C10.406 10.3821 10.6915 9.87416 11.137 9.53142L11.076 9.45216ZM12.7613 8.97119C12.1555 8.88573 11.5416 9.06119 11.0744 9.4535L11.1387 9.53009C11.5841 9.15609 12.1695 8.9887 12.7474 9.07021L12.7613 8.97119ZM25.6637 26.8379C25.6637 27.1247 25.5193 27.3746 25.2981 27.5541C25.0766 27.734 24.7805 27.8408 24.4847 27.8408V27.9408C24.8034 27.9408 25.1218 27.8261 25.3611 27.6318C25.6008 27.4373 25.7637 27.1607 25.7637 26.8379H25.6637ZM25.7137 26.7879H25.7137V26.8879H25.7137V26.7879ZM25.6637 21.4621V26.8379H25.7637V21.4621H25.6637ZM20.2364 24.6644L25.7386 21.5054L25.6888 21.4187L20.1866 24.5777L20.2364 24.6644ZM18.8703 25.0313C19.3514 25.0371 19.8247 24.91 20.2371 24.664L20.1859 24.5781C19.7893 24.8146 19.3342 24.9369 18.8715 24.9313L18.8703 25.0313ZM17.191 24.4101C17.6621 24.8025 18.2551 25.0219 18.8701 25.0313L18.8716 24.9313C18.2794 24.9222 17.7085 24.711 17.255 24.3332L17.191 24.4101ZM14.1457 21.7491L17.1901 24.4093L17.2559 24.334L14.2115 21.6738L14.1457 21.7491ZM12.4772 21.6681C12.978 21.2867 13.6834 21.3206 14.1446 21.7481L14.2126 21.6748C13.7157 21.2142 12.956 21.1777 12.4166 21.5886L12.4772 21.6681ZM8.14725 24.8277L12.4764 21.6687L12.4175 21.5879L8.08831 24.7469L8.14725 24.8277ZM8.16778 26.8379V24.7873H8.06778V26.8379H8.16778ZM8.16663 26.9215C8.16582 26.8945 8.16618 26.8676 8.1677 26.8407L8.06786 26.835C8.06617 26.8649 8.06578 26.8947 8.06668 26.9245L8.16663 26.9215ZM9.14975 27.8409C8.6219 27.8563 8.18211 27.4443 8.16664 26.9215L8.06668 26.9245C8.08381 27.5031 8.57037 27.9578 9.15267 27.9408L9.14975 27.8409ZM24.4847 27.8408H9.15121V27.9408H24.4847V27.8408ZM19.6503 23.7227L25.7391 20.2035L25.689 20.1169L19.6003 23.6361L19.6503 23.7227ZM17.9452 23.5791C18.4247 23.983 19.1096 24.0405 19.6506 23.7225L19.6 23.6363C19.0954 23.9329 18.4567 23.8792 18.0096 23.5026L17.9452 23.5791ZM14.8722 20.8906L17.9445 23.5785L18.0103 23.5032L14.9381 20.8153L14.8722 20.8906ZM11.8345 20.7824C12.7486 20.1103 14.0098 20.1554 14.8727 20.891L14.9376 20.8149C14.0394 20.0492 12.7267 20.0022 11.7753 20.7018L11.8345 20.7824ZM8.14742 23.4428L11.8342 20.7826L11.7756 20.7015L8.08891 23.3617L8.14742 23.4428ZM8.06816 15.5049V23.4023H8.16816V15.5049H8.06816ZM9.15159 14.2634C8.50064 14.2634 8.06816 14.8774 8.06816 15.5049H8.16816C8.16816 14.9131 8.57362 14.3634 9.15159 14.3634V14.2634ZM24.4851 14.2634H9.15159V14.3634H24.4851V14.2634ZM25.7639 15.5016C25.72 14.8253 25.1689 14.2914 24.4872 14.2634L24.4831 14.3633C25.1143 14.3893 25.6235 14.8835 25.6642 15.5081L25.7639 15.5016ZM25.764 20.1602V15.5049H25.664V20.1602H25.764ZM28.8211 13.0511L28.82 13.0621L28.9195 13.0723L28.9206 13.0612L28.8211 13.0511ZM27.8597 11.8977C28.4467 11.953 28.8767 12.4699 28.8211 13.0514L28.9206 13.0609C28.9816 12.4236 28.5104 11.8586 27.8691 11.7982L27.8597 11.8977ZM12.6368 10.1519L27.8587 11.8976L27.8701 11.7983L12.6482 10.0525L12.6368 10.1519ZM11.8329 10.3651C12.0683 10.2036 12.353 10.1283 12.6384 10.152L12.6467 10.0524C12.3384 10.0268 12.0308 10.1081 11.7763 10.2827L11.8329 10.3651ZM11.4347 11.0539C11.4871 10.7851 11.6288 10.5414 11.8372 10.3618L11.772 10.286C11.5466 10.4803 11.3933 10.7439 11.3366 11.0348L11.4347 11.0539ZM11.1839 13.2116L11.4353 11.0502L11.336 11.0386L11.0846 13.2L11.1839 13.2116ZM24.4847 13.1558H11.1343V13.2558H24.4847V13.1558ZM26.8808 15.504C26.8358 14.2148 25.7848 13.185 24.4858 13.1558L24.4836 13.2558C25.7303 13.2838 26.7377 14.2719 26.7809 15.5075L26.8808 15.504ZM26.8808 25.2875V15.5057H26.7808V25.2875H26.8808ZM26.9449 25.1541C26.9086 25.1704 26.8721 25.1868 26.8448 25.2029C26.8312 25.2109 26.8171 25.2205 26.8058 25.2319C26.7951 25.2427 26.7808 25.2615 26.7808 25.2875H26.8808C26.8808 25.2999 26.8741 25.3051 26.877 25.3022C26.8793 25.2998 26.8849 25.2954 26.8956 25.289C26.9171 25.2764 26.9478 25.2625 26.986 25.2452L26.9449 25.1541ZM27.1587 25.0303C27.1094 25.0792 27.0254 25.1178 26.9449 25.1541L26.986 25.2452C27.0613 25.2113 27.1643 25.1656 27.2292 25.1012L27.1587 25.0303ZM27.507 24.318C27.5092 24.594 27.3823 24.8556 27.1632 25.0263L27.2247 25.1052C27.4681 24.9155 27.6094 24.6245 27.607 24.3172L27.507 24.318ZM28.8201 13.0614L27.5074 24.3118L27.6067 24.3234L28.9194 13.073L28.8201 13.0614Z" fill="#323232"/>
<path d="M13 21L8 24L7.5 28H14H21H25.5L26 24.5V21L25 21.5L18.5 24.5L13 21Z" fill="#323232"/>
<circle cx="20" cy="19" r="2" fill="#537BFB"/>
</svg>
