<svg width="38" height="38" viewBox="0 0 38 38" fill="none" xmlns="http://www.w3.org/2000/svg">
<rect width="38" height="38" rx="5" fill="white" fill-opacity="0.2"/>
<rect x="0.4" y="0.4" width="37.2" height="37.2" rx="4.6" stroke="#202020" stroke-opacity="0.7" stroke-width="0.8"/>
<g opacity="0.8">
<path fill-rule="evenodd" clip-rule="evenodd" d="M28.7669 31H9.90737C7.75282 31 6 29.3572 6 27.3379V9.66211C6 7.6428 7.75282 6 9.90737 6H28.7669C30.9215 6 32.6743 7.6428 32.6743 9.66211V27.3379C32.6743 29.3572 30.9215 31 28.7669 31ZM9.90735 7.46484C8.61466 7.46484 7.56293 8.45056 7.56293 9.66211V27.3379C7.56293 28.5494 8.61466 29.5352 9.90735 29.5352H28.7669C30.0596 29.5352 31.1113 28.5494 31.1113 27.3379V9.66211C31.1113 8.45056 30.0596 7.46484 28.7669 7.46484H9.90735Z" fill="black"/>
<path d="M9.90737 31.2H28.7669V30.8H9.90737V31.2ZM5.8 27.3379C5.8 29.4797 7.65477 31.2 9.90737 31.2V30.8C7.85087 30.8 6.2 29.2347 6.2 27.3379H5.8ZM5.8 9.66211V27.3379H6.2V9.66211H5.8ZM9.90737 5.8C7.65477 5.8 5.8 7.52033 5.8 9.66211H6.2C6.2 7.76527 7.85087 6.2 9.90737 6.2V5.8ZM28.7669 5.8H9.90737V6.2H28.7669V5.8ZM32.8743 9.66211C32.8743 7.52033 31.0195 5.8 28.7669 5.8V6.2C30.8234 6.2 32.4743 7.76527 32.4743 9.66211H32.8743ZM32.8743 27.3379V9.66211H32.4743V27.3379H32.8743ZM28.7669 31.2C31.0195 31.2 32.8743 29.4797 32.8743 27.3379H32.4743C32.4743 29.2347 30.8234 30.8 28.7669 30.8V31.2ZM7.76293 9.66211C7.76293 8.57303 8.71271 7.66484 9.90735 7.66484V7.26484C8.51661 7.26484 7.36293 8.32809 7.36293 9.66211H7.76293ZM7.76293 27.3379V9.66211H7.36293V27.3379H7.76293ZM9.90735 29.3352C8.71271 29.3352 7.76293 28.427 7.76293 27.3379H7.36293C7.36293 28.6719 8.51661 29.7352 9.90735 29.7352V29.3352ZM28.7669 29.3352H9.90735V29.7352H28.7669V29.3352ZM30.9113 27.3379C30.9113 28.427 29.9615 29.3352 28.7669 29.3352V29.7352C30.1576 29.7352 31.3113 28.6719 31.3113 27.3379H30.9113ZM30.9113 9.66211V27.3379H31.3113V9.66211H30.9113ZM28.7669 7.66484C29.9615 7.66484 30.9113 8.57303 30.9113 9.66211H31.3113C31.3113 8.32809 30.1576 7.26484 28.7669 7.26484V7.66484ZM9.90735 7.66484H28.7669V7.26484H9.90735V7.66484Z" fill="black"/>
<path fill-rule="evenodd" clip-rule="evenodd" d="M26.3702 18.5C26.3702 22.1346 23.215 25.0918 19.337 25.0918C15.4589 25.0918 12.3037 22.1346 12.3037 18.5C12.3037 14.8654 15.4589 11.9082 19.337 11.9082C23.215 11.9082 26.3702 14.8654 26.3702 18.5ZM24.8073 18.5C24.8073 15.6729 22.3534 13.373 19.337 13.373C16.3206 13.373 13.8667 15.6729 13.8667 18.5C13.8667 21.3271 16.3206 23.627 19.337 23.627C22.3534 23.627 24.8073 21.3271 24.8073 18.5Z" fill="black"/>
<path d="M19.337 25.3918C23.3621 25.3918 26.6702 22.3184 26.6702 18.5H26.0702C26.0702 21.9509 23.068 24.7918 19.337 24.7918V25.3918ZM12.0037 18.5C12.0037 22.3184 15.3118 25.3918 19.337 25.3918V24.7918C15.606 24.7918 12.6037 21.9509 12.6037 18.5H12.0037ZM19.337 11.6082C15.3118 11.6082 12.0037 14.6816 12.0037 18.5H12.6037C12.6037 15.0491 15.606 12.2082 19.337 12.2082V11.6082ZM26.6702 18.5C26.6702 14.6816 23.3621 11.6082 19.337 11.6082V12.2082C23.068 12.2082 26.0702 15.0491 26.0702 18.5H26.6702ZM19.337 13.673C22.2063 13.673 24.5073 15.8566 24.5073 18.5H25.1073C25.1073 15.4892 22.5005 13.073 19.337 13.073V13.673ZM14.1667 18.5C14.1667 15.8566 16.4676 13.673 19.337 13.673V13.073C16.1735 13.073 13.5667 15.4892 13.5667 18.5H14.1667ZM19.337 23.327C16.4676 23.327 14.1667 21.1434 14.1667 18.5H13.5667C13.5667 21.5108 16.1735 23.927 19.337 23.927V23.327ZM24.5073 18.5C24.5073 21.1434 22.2063 23.327 19.337 23.327V23.927C22.5005 23.927 25.1073 21.5108 25.1073 18.5H24.5073Z" fill="black"/>
</g>
<circle cx="28" cy="12" r="2" fill="#F78E2C"/>
</svg>
