<svg width="362" height="497" viewBox="0 0 362 497" fill="none" xmlns="http://www.w3.org/2000/svg">
<path opacity="0.1" d="M350.503 151.377L289.791 81.8136L289.907 81.7251L218.189 0L191.193 31.0449C191.154 31.0892 191.116 31.1334 191.077 31.1334C191.038 31.2218 191.038 31.2661 191 31.3103L163.811 62.5321L230.431 138.42H78.0728V226.425H116.5C116.809 226.469 117.08 226.602 117.389 226.602L323.314 226.602C338.878 226.602 352.898 215.899 358.884 199.404C364.831 182.953 361.51 163.981 350.503 151.377Z" fill="#537BFB"/>
<path opacity="0.1" d="M11.2811 344.395L72.0351 414.502L71.9192 414.636L143.604 497L170.601 465.668C170.64 465.623 170.678 465.623 170.717 465.578C170.756 465.534 170.756 465.445 170.794 465.4L197.946 433.89L131.36 357.409H283.728V268.717H245.337C244.989 268.717 244.757 268.494 244.41 268.494H38.4717C22.9066 268.494 8.88643 279.369 2.89986 295.904C-3.00947 312.528 0.273491 331.693 11.2811 344.395Z" fill="#F98F18"/>
</svg>
