<svg width="38" height="38" viewBox="0 0 38 38" fill="none" xmlns="http://www.w3.org/2000/svg">
<rect width="38" height="38" rx="5" fill="white" fill-opacity="0.2"/>
<rect x="0.4" y="0.4" width="37.2" height="37.2" rx="4.6" stroke="#202020" stroke-opacity="0.7" stroke-width="0.8"/>
<rect x="5.57143" y="12.5714" width="26.8571" height="14.8571" rx="2.28571" stroke="#333333" stroke-width="1.14286"/>
<path d="M14.1871 23.5714H11.664C11.2656 23.5714 11 23.3325 11 22.974V17.7169C11 17.3584 11.2656 17.1195 11.664 17.1195C12.0624 17.1195 12.3279 17.3584 12.3279 17.7169V22.3766H14.1871C14.5854 22.3766 14.851 22.6156 14.851 22.974C14.851 23.213 14.4526 23.5714 14.1871 23.5714ZM16.9757 22.974C16.9757 23.3325 16.7101 23.5714 16.3118 23.5714C15.9134 23.5714 15.6478 23.3325 15.6478 22.974V17.7169C15.6478 17.3584 15.9134 17.1195 16.3118 17.1195C16.7101 17.1195 16.9757 17.3584 16.9757 17.7169V22.974ZM21.2251 23.3325C21.2251 23.3325 21.0923 23.4519 20.9596 23.4519C20.8268 23.4519 20.8268 23.4519 20.694 23.4519C20.5612 23.4519 20.4284 23.4519 20.4284 23.3325C20.2956 23.213 20.2956 23.213 20.1628 23.0935L18.9676 20.5844V22.974C18.9676 23.3325 18.7021 23.5714 18.3037 23.5714C17.9053 23.5714 17.6397 23.3325 17.6397 22.974V17.7169C17.6397 17.5974 17.6397 17.5974 17.6397 17.4779C17.6397 17.4779 17.6397 17.4779 17.6397 17.3584C17.6397 17.3584 17.6397 17.239 17.7725 17.239C17.7725 17.239 17.9053 17.1195 18.0381 17.1195C18.0381 17.1195 18.0381 17.1195 18.1709 17.1195H18.3037H18.4365C18.4365 17.1195 18.5693 17.1195 18.5693 17.239H18.7021C18.7021 17.239 18.8348 17.3584 18.8348 17.4779L20.03 19.987V17.5974C20.03 17.239 20.2956 17 20.694 17C21.0923 17 21.3579 17.239 21.3579 17.5974V22.7351C21.3579 22.8545 21.3579 22.8545 21.3579 22.974C21.3579 23.213 21.3579 23.213 21.2251 23.3325C21.2251 23.3325 21.3579 23.3325 21.2251 23.3325ZM25.4746 19.7481C25.8729 19.7481 26.1385 19.987 26.1385 20.3455C26.1385 20.7039 25.8729 20.9429 25.4746 20.9429H23.6154V22.3766H25.4746C25.8729 22.3766 26.1385 22.6156 26.1385 22.974C26.1385 23.3325 25.8729 23.5714 25.4746 23.5714H23.0843C22.6859 23.5714 22.4203 23.3325 22.4203 22.974V17.7169C22.4203 17.3584 22.6859 17.1195 23.0843 17.1195H25.4746C25.8729 17.1195 26.1385 17.3584 26.1385 17.7169C26.1385 18.0753 25.8729 18.3143 25.4746 18.3143H23.6154V19.7481H25.4746V19.7481Z" fill="#F78E2C"/>
</svg>
