<svg width="68" height="68" viewBox="0 0 68 68" fill="none" xmlns="http://www.w3.org/2000/svg">
<path d="M33.8298 34H61.4548" stroke="#F78E2C" stroke-width="4.25" stroke-linecap="round" stroke-linejoin="round"/>
<path d="M50.8511 53.125V59.5H16.8511V8.5H50.8511V14.875H55.1011V6.375C55.1011 5.81141 54.8772 5.27091 54.4787 4.8724C54.0802 4.47388 53.5397 4.25 52.9761 4.25H14.7261C14.1625 4.25 13.622 4.47388 13.2235 4.8724C12.825 5.27091 12.6011 5.81141 12.6011 6.375V61.625C12.6011 62.1886 12.825 62.7291 13.2235 63.1276C13.622 63.5261 14.1625 63.75 14.7261 63.75H52.9761C53.5397 63.75 54.0802 63.5261 54.4787 63.1276C54.8772 62.7291 55.1011 62.1886 55.1011 61.625V53.125H50.8511Z" fill="#343434"/>
<path d="M61.4548 34L52.9548 42.5" stroke="#F78E2C" stroke-width="4.25" stroke-linecap="round" stroke-linejoin="round"/>
<path d="M61.4548 34L52.9548 25.5" stroke="#F78E2C" stroke-width="4.25" stroke-linecap="round" stroke-linejoin="round"/>
<path d="M52.9548 17.1914V12.9414" stroke="#343434" stroke-width="4.25" stroke-linecap="round" stroke-linejoin="round"/>
<path d="M52.9548 55.25V51" stroke="#343434" stroke-width="4.25" stroke-linecap="round" stroke-linejoin="round"/>
</svg>
