<svg width="38" height="38" viewBox="0 0 38 38" fill="none" xmlns="http://www.w3.org/2000/svg">
<rect width="38" height="38" rx="5" fill="white" fill-opacity="0.2"/>
<rect x="0.4" y="0.4" width="37.2" height="37.2" rx="4.6" stroke="#202020" stroke-opacity="0.7" stroke-width="0.8"/>
<g clip-path="url(#clip0_124_452)">
<path d="M30.0012 25.285C29.9643 25.4539 29.9316 25.6234 29.8899 25.7912C29.4084 27.7293 27.8489 28.9869 25.871 28.9912C21.2893 29.0014 16.7073 29.0014 12.1249 28.9912C9.75651 28.9831 8.00548 27.1567 8.00548 24.7413C8.00548 23.2025 8.00923 21.6638 8.00174 20.1257C7.99255 19.8224 8.06666 19.5225 8.21574 19.2599C8.7106 18.3826 9.16588 17.482 9.63881 16.59C10.0363 15.8403 10.4151 15.0796 10.8409 14.3468C11.4 13.384 12.2646 12.9268 13.3554 12.9023C13.6272 12.8963 13.8995 12.9023 14.1713 12.9023C14.5495 12.9023 14.7945 13.1159 14.7967 13.4412C14.7988 13.7665 14.5522 13.9888 14.1814 13.9915C13.9161 13.9937 13.6511 13.9937 13.3864 13.9915C12.6118 13.9872 12.0441 14.3397 11.6745 15.0268C11.1764 15.9612 10.6842 16.8989 10.1899 17.8356C9.98656 18.2203 9.78344 18.6051 9.5805 18.9902C9.54787 19.0523 9.51898 19.1166 9.4735 19.213H9.73297C11.1079 19.213 12.4823 19.2195 13.8567 19.2086C14.2253 19.2086 14.4586 19.3416 14.6057 19.6936C14.8582 20.2962 15.1375 20.8868 15.4082 21.4802C15.7329 22.1885 16.2706 22.6141 17.0458 22.6244C18.3412 22.6444 19.6366 22.6415 20.932 22.6157C21.6018 22.6065 22.1052 22.2458 22.4043 21.6448C22.7253 21.0127 23.0163 20.3589 23.294 19.705C23.4464 19.3443 23.684 19.2086 24.0601 19.2146C25.4848 19.2255 26.9094 19.219 28.3341 19.219H28.6016C28.562 19.1258 28.5353 19.0615 28.5069 18.9978C27.9381 17.7264 27.3694 16.4551 26.8008 15.1837C26.4477 14.3931 25.8486 13.9915 24.991 13.997C24.5972 13.997 24.2035 13.997 23.8097 13.997C23.4529 13.997 23.2089 13.7725 23.2073 13.4559C23.2057 13.1393 23.4475 12.911 23.8027 12.911C24.1965 12.9083 24.5903 12.9061 24.984 12.911C26.2862 12.9258 27.2224 13.5289 27.766 14.7347C28.4497 16.2217 29.1125 17.7206 29.7872 19.2146C29.8519 19.359 29.93 19.4974 30.0012 19.6385V25.285ZM9.08617 20.3044C9.08082 20.3801 9.07439 20.4297 9.07386 20.4793C9.07386 21.9444 9.07386 23.4096 9.07761 24.8753C9.07805 25.0936 9.10281 25.3111 9.15144 25.5237C9.49009 26.9774 10.6671 27.9064 12.1693 27.907C16.7214 27.907 21.2738 27.907 25.8266 27.907C26.0627 27.909 26.2985 27.8865 26.5301 27.8399C27.957 27.5348 28.9173 26.3306 28.9312 24.8164C28.9419 23.3731 28.9312 21.9286 28.9312 20.4858C28.9312 20.4313 28.921 20.3768 28.9162 20.3224C28.8916 20.3148 28.8663 20.3096 28.8408 20.3066C27.3374 20.3066 25.8341 20.3033 24.3313 20.3115C24.2655 20.3115 24.1708 20.3937 24.1393 20.4618C23.9097 20.9468 23.6973 21.4426 23.47 21.9265C22.9468 23.0418 22.0876 23.6826 20.863 23.7125C19.5897 23.7445 18.3157 23.7445 17.041 23.7125C15.8239 23.6826 14.9679 23.0516 14.4463 21.9439C14.2173 21.4582 13.9958 20.9691 13.7818 20.4766C13.7235 20.3431 13.6539 20.2984 13.51 20.2995C12.5583 20.3066 11.606 20.3033 10.6542 20.3033L9.08617 20.3044Z" fill="#323232"/>
<path d="M18.4709 16.489V16.1801C18.4709 14.0006 18.4709 11.8211 18.4709 9.64164C18.4709 9.227 18.6897 8.98344 19.0337 9.00142C19.152 9.00949 19.2642 9.05791 19.3523 9.13886C19.4403 9.21982 19.499 9.32859 19.5189 9.44767C19.5293 9.5492 19.5332 9.6513 19.5307 9.75334C19.5307 11.8892 19.5307 14.0251 19.5307 16.161V16.471C19.6249 16.398 19.6842 16.3544 19.7409 16.3076C20.3327 15.8128 20.9228 15.3154 21.5171 14.8239C21.6132 14.7401 21.7345 14.6922 21.8609 14.6881C21.9874 14.6839 22.1114 14.7237 22.2126 14.801C22.305 14.8777 22.3689 14.9842 22.3939 15.1028C22.4189 15.2215 22.4034 15.3452 22.3501 15.4538C22.2989 15.549 22.2294 15.6327 22.1457 15.7001C21.2541 16.4527 20.3585 17.2026 19.459 17.9498C19.1032 18.2468 18.9037 18.2479 18.5495 17.9553C17.6304 17.2001 16.7123 16.4436 15.7954 15.6859C15.5696 15.4995 15.5 15.2413 15.6006 15.007C15.646 14.8943 15.7294 14.8018 15.8359 14.7462C15.9423 14.6907 16.0648 14.6757 16.1811 14.704C16.2974 14.7353 16.4054 14.7927 16.4973 14.8719C17.0858 15.3486 17.6678 15.8319 18.2521 16.313C18.3082 16.3599 18.3687 16.4067 18.4709 16.489Z" fill="#537BFB"/>
</g>
<defs>
<clipPath id="clip0_124_452">
<rect width="22" height="20" fill="white" transform="translate(8 9)"/>
</clipPath>
</defs>
</svg>
