<svg width="38" height="38" viewBox="0 0 38 38" fill="none" xmlns="http://www.w3.org/2000/svg">
<rect width="38" height="38" rx="5" fill="white" fill-opacity="0.2"/>
<rect x="0.4" y="0.4" width="37.2" height="37.2" rx="4.6" stroke="#202020" stroke-opacity="0.7" stroke-width="0.8"/>
<g opacity="0.8">
<path fill-rule="evenodd" clip-rule="evenodd" d="M25.9015 28.5999C25.9015 29.9233 24.8548 31 23.5682 31C19.246 31 14.8058 29.0007 11.3864 25.5147C7.96327 22.025 6 17.4884 6 13.0682C6 11.751 7.05171 10.6795 8.34442 10.6795H11.4703C11.8065 10.6795 12.105 10.8995 12.2115 11.2259L13.7745 16.0147C13.8509 16.2491 13.8173 16.5065 13.6835 16.712L12.3578 18.7477C13.3614 20.8945 15.8847 23.4547 18.0196 24.4918L20.0088 23.1341C20.2097 22.9971 20.461 22.9627 20.69 23.041L25.3677 24.6411C25.6865 24.7501 25.9015 25.0557 25.9015 25.3999V28.5999ZM10.9074 12.2795H8.34428C7.90609 12.2795 7.56281 12.626 7.56281 13.0682C7.56281 21.463 15.3411 29.4 23.5681 29.4C24.0001 29.4 24.3384 29.0486 24.3384 28.6V25.9761L20.5574 24.6827L18.5313 26.0655C18.3172 26.2116 18.0464 26.2404 17.8076 26.1426C16.501 25.6076 15.0327 24.5546 13.673 23.1775C12.3043 21.7913 11.2643 20.2954 10.7447 18.9654C10.6491 18.7208 10.6772 18.4438 10.82 18.2245L12.1707 16.1504L10.9074 12.2795Z" fill="black"/>
<path fill-rule="evenodd" clip-rule="evenodd" d="M21.4526 21.1661C21.2291 21.3948 20.8929 21.4633 20.601 21.3395C20.3089 21.2156 20.1185 20.9239 20.1185 20.6004V18.1433C17.4711 17.7539 15.4297 15.4165 15.4297 12.6001C15.4297 9.51223 17.8837 7 20.9 7H27.1518C30.1968 7 32.6742 9.51223 32.6742 12.6001C32.6742 15.6881 30.1968 18.2003 27.1518 18.2003H24.3496L21.4526 21.1661ZM20.8999 8.5993C18.7453 8.5993 16.9925 10.3937 16.9925 12.5994C16.9925 14.8051 18.7453 16.5995 20.8999 16.5995C21.3314 16.5995 21.6813 16.9577 21.6813 17.3995V18.6682L23.4732 16.8338C23.6197 16.6838 23.8185 16.5995 24.0258 16.5995H27.1516C29.3349 16.5995 31.1111 14.8051 31.1111 12.5994C31.1111 10.3937 29.3349 8.5993 27.1516 8.5993H20.8999Z" fill="black"/>
<ellipse cx="20.8996" cy="12.5999" rx="0.781473" ry="0.800021" fill="#537BFB"/>
<ellipse cx="24.0266" cy="12.5999" rx="0.781473" ry="0.800021" fill="#537BFB"/>
<ellipse cx="27.1516" cy="12.5999" rx="0.781473" ry="0.800021" fill="#537BFB"/>
</g>
</svg>
