<svg width="69" height="69" viewBox="0 0 69 69" fill="none" xmlns="http://www.w3.org/2000/svg">
<rect width="69" height="69" rx="16.3729" fill="white" fill-opacity="0.2"/>
<rect x="17.8716" y="24.9211" width="32.7458" height="22.2203" rx="3.50847" fill="white"/>
<rect x="27.2275" y="21.4126" width="12.8644" height="9.35593" rx="3.50847" fill="white"/>
<path fill-rule="evenodd" clip-rule="evenodd" d="M47.3983 24.3839C48.4415 24.3839 49.3583 24.7948 50.0221 25.4903C50.7176 26.1542 51.1286 27.071 51.1286 28.1142V43.8574C51.1286 44.869 50.686 45.8174 50.0221 46.4813C49.3583 47.1768 48.4415 47.5877 47.3983 47.5877H21.6021C20.5905 47.5877 19.6421 47.1452 18.9783 46.4813C18.2828 45.8174 17.8718 44.9007 17.8718 43.8574V28.1142C17.8718 27.1026 18.3144 26.1542 18.9783 25.4903C19.6421 24.7948 20.5589 24.3839 21.6021 24.3839H26.8183V24.3206C26.8183 23.5303 27.1344 22.8032 27.6718 22.2658C28.2092 21.7284 28.9363 21.4123 29.7583 21.4123H39.2421C40.0325 21.4123 40.7596 21.7284 41.297 22.2658C41.8344 22.7716 42.1505 23.5303 42.1505 24.3206V24.3839H47.3983ZM49.4542 43.8581H49.4858V28.1149C49.4858 27.5459 49.2645 27.0401 48.8852 26.6607C48.5058 26.2814 48 26.0601 47.431 26.0601H41.3297C40.8555 26.0601 40.4761 25.6807 40.4761 25.2065V24.2898C40.4761 23.942 40.3497 23.6259 40.1284 23.4046C39.9071 23.1833 39.591 23.0569 39.2432 23.0569H29.791C29.4432 23.0569 29.1271 23.1833 28.9058 23.4046C28.6845 23.6259 28.5581 23.942 28.5581 24.2898V25.2065C28.5581 25.6807 28.1787 26.0601 27.7045 26.0601H21.6032C21.0342 26.0601 20.5284 26.2814 20.149 26.6607C19.7697 27.0401 19.5484 27.5459 19.5484 28.1149V43.8581C19.5484 44.4272 19.7697 44.933 20.149 45.3123C20.5284 45.6917 21.0342 45.913 21.6032 45.913H47.3994C47.9684 45.913 48.4742 45.6917 48.8536 45.3123C49.2329 44.933 49.4542 44.4272 49.4542 43.8581Z" fill="black"/>
<path d="M50.0221 25.4903L49.9646 25.5452L49.9673 25.5478L50.0221 25.4903ZM50.0221 46.4813L49.966 46.4251L49.9647 46.4265L50.0221 46.4813ZM18.9783 46.4813L19.0344 46.4251L19.0331 46.4239L18.9783 46.4813ZM18.9783 25.4903L19.0344 25.5465L19.0357 25.5452L18.9783 25.4903ZM26.8183 24.3839V24.4633H26.8977V24.3839H26.8183ZM27.6718 22.2658L27.728 22.322L27.6718 22.2658ZM41.297 22.2658L41.2408 22.322L41.2426 22.3236L41.297 22.2658ZM42.1505 24.3839H42.0711V24.4633H42.1505V24.3839ZM49.4858 43.8581V43.9376H49.5652V43.8581H49.4858ZM49.4542 43.8581V43.7787H49.3748V43.8581H49.4542ZM48.8852 26.6607L48.9413 26.6046L48.8852 26.6607ZM40.1284 23.4046L40.1845 23.3485L40.1284 23.4046ZM28.9058 23.4046L28.8497 23.3485L28.8497 23.3485L28.9058 23.4046ZM20.149 26.6607L20.0929 26.6046L20.149 26.6607ZM20.149 45.3123L20.0929 45.3685L20.149 45.3123ZM48.8536 45.3123L48.9097 45.3685L48.8536 45.3123ZM50.0796 25.4355C49.4008 24.7244 48.4633 24.3045 47.3983 24.3045V24.4633C48.4197 24.4633 49.3158 24.8653 49.9647 25.5452L50.0796 25.4355ZM51.208 28.1142C51.208 27.0492 50.7881 26.1117 50.077 25.4329L49.9673 25.5478C50.6472 26.1967 51.0492 27.0927 51.0492 28.1142H51.208ZM51.208 43.8574V28.1142H51.0492V43.8574H51.208ZM50.0783 46.5374C50.7557 45.86 51.208 44.8919 51.208 43.8574H51.0492C51.0492 44.8461 50.6163 45.7748 49.966 46.4251L50.0783 46.5374ZM47.3983 47.6672C48.4633 47.6672 49.4008 47.2473 50.0796 46.5361L49.9647 46.4265C49.3158 47.1063 48.4197 47.5083 47.3983 47.5083V47.6672ZM21.6021 47.6672H47.3983V47.5083H21.6021V47.6672ZM18.9221 46.5374C19.5995 47.2148 20.5676 47.6672 21.6021 47.6672V47.5083C20.6134 47.5083 19.6848 47.0755 19.0344 46.4251L18.9221 46.5374ZM17.7924 43.8574C17.7924 44.9224 18.2123 45.8599 18.9234 46.5387L19.0331 46.4239C18.3533 45.7749 17.9512 44.8789 17.9512 43.8574H17.7924ZM17.7924 28.1142V43.8574H17.9512V28.1142H17.7924ZM18.9221 25.4342C18.2447 26.1116 17.7924 27.0797 17.7924 28.1142H17.9512C17.9512 27.1255 18.3841 26.1968 19.0344 25.5465L18.9221 25.4342ZM21.6021 24.3045C20.5372 24.3045 19.5996 24.7244 18.9208 25.4355L19.0357 25.5452C19.6846 24.8653 20.5807 24.4633 21.6021 24.4633V24.3045ZM26.8183 24.3045H21.6021V24.4633H26.8183V24.3045ZM26.7389 24.3206V24.3839H26.8977V24.3206H26.7389ZM27.6157 22.2097C27.0638 22.7615 26.7389 23.5087 26.7389 24.3206H26.8977C26.8977 23.552 27.205 22.8449 27.728 22.322L27.6157 22.2097ZM29.7583 21.3329C28.9151 21.3329 28.1679 21.6575 27.6157 22.2097L27.728 22.322C28.2506 21.7993 28.9575 21.4917 29.7583 21.4917V21.3329ZM39.2421 21.3329H29.7583V21.4917H39.2421V21.3329ZM41.3531 22.2097C40.8013 21.6578 40.0541 21.3329 39.2421 21.3329V21.4917C40.0108 21.4917 40.7179 21.799 41.2408 22.322L41.3531 22.2097ZM42.2299 24.3206C42.2299 23.5101 41.9059 22.7299 41.3514 22.208L41.2426 22.3236C41.7629 22.8134 42.0711 23.5506 42.0711 24.3206H42.2299ZM42.2299 24.3839V24.3206H42.0711V24.3839H42.2299ZM47.3983 24.3045H42.1505V24.4633H47.3983V24.3045ZM49.4858 43.7787H49.4542V43.9376H49.4858V43.7787ZM49.4064 28.1149V43.8581H49.5652V28.1149H49.4064ZM48.829 26.7169C49.1938 27.0817 49.4064 27.5675 49.4064 28.1149H49.5652C49.5652 27.5243 49.3352 26.9985 48.9413 26.6046L48.829 26.7169ZM47.431 26.1395C47.9785 26.1395 48.4642 26.3521 48.829 26.7169L48.9413 26.6046C48.5474 26.2107 48.0216 25.9807 47.431 25.9807V26.1395ZM41.3297 26.1395H47.431V25.9807H41.3297V26.1395ZM40.3967 25.2065C40.3967 25.7246 40.8116 26.1395 41.3297 26.1395V25.9807C40.8994 25.9807 40.5555 25.6369 40.5555 25.2065H40.3967ZM40.3967 24.2898V25.2065H40.5555V24.2898H40.3967ZM40.0723 23.4608C40.2773 23.6658 40.3967 23.9611 40.3967 24.2898H40.5555C40.5555 23.9229 40.4221 23.586 40.1845 23.3485L40.0723 23.4608ZM39.2432 23.1363C39.5719 23.1363 39.8672 23.2557 40.0723 23.4608L40.1845 23.3485C39.947 23.1109 39.6101 22.9775 39.2432 22.9775V23.1363ZM29.791 23.1363H39.2432V22.9775H29.791V23.1363ZM28.962 23.4608C29.167 23.2557 29.4623 23.1363 29.791 23.1363V22.9775C29.4241 22.9775 29.0872 23.1109 28.8497 23.3485L28.962 23.4608ZM28.6375 24.2898C28.6375 23.9611 28.7569 23.6658 28.962 23.4608L28.8497 23.3485C28.6122 23.586 28.4787 23.9229 28.4787 24.2898H28.6375ZM28.6375 25.2065V24.2898H28.4787V25.2065H28.6375ZM27.7045 26.1395C28.2226 26.1395 28.6375 25.7246 28.6375 25.2065H28.4787C28.4787 25.6369 28.1349 25.9807 27.7045 25.9807V26.1395ZM21.6032 26.1395H27.7045V25.9807H21.6032V26.1395ZM20.2052 26.7169C20.57 26.3521 21.0558 26.1395 21.6032 26.1395V25.9807C21.0126 25.9807 20.4868 26.2107 20.0929 26.6046L20.2052 26.7169ZM19.6278 28.1149C19.6278 27.5675 19.8404 27.0817 20.2052 26.7169L20.0929 26.6046C19.699 26.9985 19.469 27.5243 19.469 28.1149H19.6278ZM19.6278 43.8581V28.1149H19.469V43.8581H19.6278ZM20.2052 45.2562C19.8404 44.8914 19.6278 44.4056 19.6278 43.8581H19.469C19.469 44.4487 19.699 44.9746 20.0929 45.3685L20.2052 45.2562ZM21.6032 45.8336C21.0558 45.8336 20.57 45.621 20.2052 45.2562L20.0929 45.3685C20.4868 45.7624 21.0126 45.9924 21.6032 45.9924V45.8336ZM47.3994 45.8336H21.6032V45.9924H47.3994V45.8336ZM48.7974 45.2562C48.4326 45.621 47.9468 45.8336 47.3994 45.8336V45.9924C47.99 45.9924 48.5158 45.7624 48.9097 45.3685L48.7974 45.2562ZM49.3748 43.8581C49.3748 44.4056 49.1622 44.8914 48.7974 45.2562L48.9097 45.3685C49.3036 44.9746 49.5336 44.4487 49.5336 43.8581H49.3748Z" fill="black"/>
<path fill-rule="evenodd" clip-rule="evenodd" d="M29.3318 30.5676C30.6182 29.2812 32.4308 28.4626 34.4188 28.4626C36.4069 28.4626 38.2195 29.2812 39.5059 30.5676C40.7923 31.854 41.6109 33.6666 41.6109 35.6546C41.6109 37.6427 40.8215 39.4261 39.5059 40.7417C38.2195 42.0281 36.4069 42.8467 34.4188 42.8467C32.4308 42.8467 30.6474 42.0573 29.3318 40.7417C28.0454 39.4553 27.2268 37.6427 27.2268 35.6546C27.2268 33.6666 28.0162 31.8832 29.3318 30.5676ZM34.4196 41.2972C35.9691 41.2972 37.3724 40.6541 38.3957 39.66C39.4189 38.6368 40.0621 37.2335 40.0329 35.684C40.0329 34.1345 39.4189 32.7311 38.3957 31.7079C37.3724 30.7139 35.9691 30.0707 34.4196 30.0707C32.8701 30.0707 31.4668 30.6846 30.4435 31.7079C29.4495 32.7311 28.8063 34.1345 28.8063 35.684C28.8063 37.2335 29.4203 38.6368 30.4435 39.66C31.4668 40.6541 32.8701 41.2972 34.4196 41.2972Z" fill="black"/>
<path d="M29.3318 30.5676L29.2756 30.5115L29.3318 30.5676ZM39.5059 30.5676L39.562 30.5115L39.5059 30.5676ZM29.3318 40.7417L29.2756 40.7978L29.3318 40.7417ZM38.3957 39.66L38.451 39.717L38.4518 39.7162L38.3957 39.66ZM40.0329 35.684H39.9535L39.9535 35.6855L40.0329 35.684ZM38.3957 31.7079L38.4518 31.6517L38.451 31.6509L38.3957 31.7079ZM30.4435 31.7079L30.3874 31.6517L30.3866 31.6525L30.4435 31.7079ZM30.4435 39.66L30.3874 39.7162L30.3882 39.717L30.4435 39.66ZM34.4188 28.3832C32.4088 28.3832 30.5762 29.2108 29.2756 30.5115L29.3879 30.6237C30.6601 29.3516 32.4528 28.542 34.4188 28.542V28.3832ZM39.562 30.5115C38.2614 29.2108 36.4289 28.3832 34.4188 28.3832V28.542C36.3849 28.542 38.1776 29.3516 39.4497 30.6237L39.562 30.5115ZM41.6903 35.6546C41.6903 33.6446 40.8626 31.8121 39.562 30.5115L39.4497 30.6237C40.7219 31.8959 41.5315 33.6886 41.5315 35.6546H41.6903ZM39.562 40.7978C40.892 39.4678 41.6903 37.6644 41.6903 35.6546H41.5315C41.5315 37.6209 40.7509 39.3843 39.4497 40.6855L39.562 40.7978ZM34.4188 42.9261C36.4289 42.9261 38.2614 42.0984 39.562 40.7978L39.4497 40.6855C38.1776 41.9577 36.3849 42.7673 34.4188 42.7673V42.9261ZM29.2756 40.7978C30.6057 42.1279 32.409 42.9261 34.4188 42.9261V42.7673C32.4525 42.7673 30.6892 41.9868 29.3879 40.6855L29.2756 40.7978ZM27.1474 35.6546C27.1474 37.6647 27.975 39.4972 29.2756 40.7978L29.3879 40.6855C28.1158 39.4134 27.3062 37.6207 27.3062 35.6546H27.1474ZM29.2756 30.5115C27.9456 31.8415 27.1474 33.6449 27.1474 35.6546H27.3062C27.3062 33.6883 28.0867 31.925 29.3879 30.6237L29.2756 30.5115ZM38.3403 39.6031C37.3306 40.584 35.9467 41.2178 34.4196 41.2178V41.3767C35.9915 41.3767 37.4142 40.7242 38.451 39.717L38.3403 39.6031ZM39.9535 35.6855C39.9823 37.2114 39.349 38.5944 38.3395 39.6039L38.4518 39.7162C39.4889 38.6791 40.142 37.2555 40.1123 35.6825L39.9535 35.6855ZM38.3395 31.764C39.3482 32.7727 39.9535 34.1559 39.9535 35.684H40.1123C40.1123 34.113 39.4897 32.6896 38.4518 31.6517L38.3395 31.764ZM34.4196 30.1501C35.9467 30.1501 37.3306 30.784 38.3403 31.7648L38.451 31.6509C37.4142 30.6438 35.9915 29.9913 34.4196 29.9913V30.1501ZM30.4997 31.764C31.5083 30.7554 32.8916 30.1501 34.4196 30.1501V29.9913C32.8486 29.9913 31.4252 30.6139 30.3874 31.6517L30.4997 31.764ZM28.8857 35.684C28.8857 34.1569 29.5196 32.7729 30.5005 31.7632L30.3866 31.6525C29.3794 32.6893 28.7269 34.1121 28.7269 35.684H28.8857ZM30.4997 39.6039C29.491 38.5952 28.8857 37.212 28.8857 35.684H28.7269C28.7269 37.2549 29.3495 38.6783 30.3874 39.7162L30.4997 39.6039ZM34.4196 41.2178C32.8925 41.2178 31.5086 40.584 30.4988 39.6031L30.3882 39.717C31.425 40.7242 32.8477 41.3767 34.4196 41.3767V41.2178Z" fill="#8E969F"/>
<circle cx="45.0886" cy="29.9799" r="1.54903" fill="#537BFB"/>
<rect x="0.584746" y="0.584746" width="67.8305" height="67.8305" rx="15.7881" stroke="#202020" stroke-opacity="0.7" stroke-width="1.16949"/>
</svg>
