<svg width="38" height="38" viewBox="0 0 38 38" fill="none" xmlns="http://www.w3.org/2000/svg">
<rect width="38" height="38" rx="5" fill="white" fill-opacity="0.2"/>
<rect x="0.4" y="0.4" width="37.2" height="37.2" rx="4.6" stroke="#202020" stroke-opacity="0.7" stroke-width="0.8"/>
<g clip-path="url(#clip0_124_448)">
<path d="M19 30.0001C18.9866 30.0001 18.9732 29.9998 18.9598 29.9989C18.8113 29.9901 15.2937 29.7475 12.5007 26.4549C9.76534 23.2301 8.72395 18.3159 9.4056 11.8486C9.43328 11.587 9.60756 11.3641 9.85471 11.2743L18.7656 8.04137C18.9172 7.98654 19.0832 7.98654 19.2346 8.04137L28.1455 11.2743C28.3926 11.3641 28.5671 11.587 28.5946 11.8486C29.2762 18.3159 28.2349 23.2303 25.4995 26.4549C22.7063 29.7475 19.1887 29.9901 19.0404 29.9989C19.0268 29.9998 19.0134 30.0001 19 30.0001ZM10.7302 12.4194C10.1772 18.2856 11.1247 22.7073 13.549 25.5652C15.8107 28.2315 18.6219 28.5866 18.9983 28.6227C19.3721 28.5847 22.2215 28.2121 24.4723 25.54C26.881 22.6806 27.8213 18.2676 27.2699 12.4192L19 9.41894L10.7302 12.4194Z" fill="#343434"/>
<path d="M22.5848 17.5199H21.9097V15.9119C21.9097 14.3063 20.6051 13 19 13C17.3949 13 16.0903 14.3071 16.0903 15.9138V17.5199H15.4227C15.1914 17.5199 15 17.7036 15 17.935V22.7934C15 23.3708 15.4736 23.84 16.051 23.84H21.9565C22.5339 23.84 23 23.3708 23 22.7934V17.935C23 17.7036 22.8161 17.5199 22.5848 17.5199ZM16.9271 15.9138C16.9271 14.769 17.8568 13.8377 19 13.8377C20.1432 13.8377 21.0729 14.7682 21.0729 15.9119V17.5199H16.9271V15.9138ZM22.1632 22.7934C22.1632 22.9089 22.072 23.0033 21.9565 23.0033H16.051C15.9355 23.0033 15.8368 22.9089 15.8368 22.7934V18.3567H22.1632V22.7934Z" fill="#343434"/>
<path d="M18.9994 21.9348C19.2308 21.9348 19.4178 21.7473 19.4178 21.516V20.0082C19.4178 19.7769 19.2308 19.5894 18.9994 19.5894C18.7681 19.5894 18.5811 19.7769 18.5811 20.0082V21.516C18.5811 21.7473 18.7681 21.9348 18.9994 21.9348Z" fill="#F78E2C"/>
</g>
<defs>
<clipPath id="clip0_124_448">
<rect width="22" height="22" fill="white" transform="translate(8 8)"/>
</clipPath>
</defs>
</svg>
