<svg width="62" height="62" viewBox="0 0 62 62" fill="none" xmlns="http://www.w3.org/2000/svg">
    <g clip-path="url(#clip0_110_26)">
        <path d="M33.4531 22.2656C33.4531 23.2448 33.3542 24.4948 33.1562 26.0156C32.9583 27.526 32.6719 29.4948 32.2969 31.9219L32.0156 33.7188C32.0052 33.7917 31.9844 33.9792 31.9531 34.2812C31.9323 34.5833 31.8802 34.8542 31.7969 35.0938C31.724 35.3229 31.6198 35.4375 31.4844 35.4375C31.2969 35.4375 31.1667 35.3229 31.0938 35.0938C31.0312 34.8646 30.9896 34.6406 30.9688 34.4219C30.9583 34.1927 30.9479 34.0417 30.9375 33.9688C30.8854 33.5208 30.8021 32.9427 30.6875 32.2344C30.5833 31.5156 30.5052 31 30.4531 30.6875C30.1302 28.5938 29.8802 26.8958 29.7031 25.5938C29.5365 24.2812 29.4531 23.1615 29.4531 22.2344C29.4531 21.6198 29.6198 21.1771 29.9531 20.9062C30.2969 20.6354 30.7865 20.5 31.4219 20.5C32.026 20.5 32.5156 20.6458 32.8906 20.9375C33.2656 21.2292 33.4531 21.6719 33.4531 22.2656ZM31.4844 37.625C31.8281 37.625 32.1458 37.7135 32.4375 37.8906C32.7396 38.0677 32.9792 38.3073 33.1562 38.6094C33.3333 38.901 33.4219 39.2188 33.4219 39.5625C33.4219 40.0938 33.2292 40.5417 32.8438 40.9062C32.4688 41.2708 32.0156 41.4531 31.4844 41.4531C30.9635 41.4531 30.5156 41.2708 30.1406 40.9062C29.776 40.5312 29.5938 40.0833 29.5938 39.5625C29.5938 39.0312 29.776 38.5781 30.1406 38.2031C30.5052 37.8177 30.9531 37.625 31.4844 37.625Z" fill="#537BFB"/>
    </g>
    <path d="M36.5878 4.50914L59.9704 50.1637C62.2798 54.6728 59.3931 60.3091 54.7743 60.3091H8.00895C3.39015 60.3091 0.503399 54.6728 2.8128 50.1637L26.1955 4.50913C28.5049 4.5267e-05 34.2783 4.90297e-05 36.5878 4.50914Z" stroke="black" stroke-width="2"/>
    <defs>
        <clipPath id="clip0_110_26">
            <rect width="5" height="22" fill="white" transform="translate(29 20)"/>
        </clipPath>
    </defs>
</svg>
