<svg width="38" height="38" viewBox="0 0 38 38" fill="none" xmlns="http://www.w3.org/2000/svg">
<rect width="38" height="38" rx="5" fill="white" fill-opacity="0.2"/>
<rect x="0.4" y="0.4" width="37.2" height="37.2" rx="4.6" stroke="#202020" stroke-opacity="0.7" stroke-width="0.8"/>
<path d="M17.1868 8.12654C19.6493 7.73904 22.2368 8.25154 24.3868 9.52654C25.9493 10.4515 27.2618 11.7765 28.1743 13.339C29.4743 15.5515 29.9743 18.239 29.4743 20.764C28.9618 23.4765 27.3118 25.914 25.0618 27.5015C23.1868 28.8265 20.9118 29.5515 18.6118 29.564C15.5243 29.564 12.4493 29.564 9.36185 29.564C8.86185 29.6265 8.39935 29.139 8.52435 28.639C8.89935 27.689 9.71185 26.9265 9.89935 25.9015C9.98685 25.339 9.81185 24.764 9.51185 24.289C8.12435 21.9765 7.66185 19.139 8.24935 16.514C8.67435 14.514 9.68685 12.639 11.1368 11.189C12.7618 9.56404 14.9118 8.46404 17.1868 8.12654ZM12.5243 11.939C11.0243 13.3015 9.99935 15.1515 9.64935 17.139C9.26185 19.3265 9.69935 21.6515 10.8368 23.5515C11.3243 24.314 11.5368 25.239 11.3993 26.139C11.3118 26.839 10.9618 27.464 10.5993 28.039C13.2743 28.039 15.9368 28.039 18.6118 28.039C20.5993 28.039 22.5868 27.4015 24.2118 26.239C26.0118 24.964 27.3618 23.039 27.8868 20.889C28.3868 18.864 28.1368 16.664 27.2368 14.789C26.4743 13.164 25.2243 11.7765 23.6868 10.839C21.9243 9.75154 19.7743 9.28904 17.7243 9.55154C15.7993 9.77654 13.9493 10.614 12.5243 11.939Z" fill="#333333"/>
<path d="M21.7615 14.178C22.2365 13.953 22.8365 14.278 22.924 14.7905C23.0615 15.378 22.3615 16.003 21.799 15.7155C21.1615 15.478 21.1115 14.4405 21.7615 14.178Z" fill="#537BFB"/>
<path d="M14.1244 15.1767C14.4369 14.8517 14.8744 15.1642 15.1744 15.3392C15.9869 15.8517 16.3494 16.7892 16.5494 17.6892C16.1244 18.0642 15.5494 18.2017 15.1369 18.5892C14.8994 18.8767 15.2119 19.1642 15.3869 19.3767C16.2744 20.4517 17.1619 21.6767 18.4869 22.2267C18.7744 21.6767 18.9619 20.8892 19.5869 20.6517C20.5119 21.0267 21.4869 21.5392 22.0369 22.4017C22.0619 23.4392 21.1619 24.2392 20.2494 24.5767C19.8369 24.8142 19.3744 24.5892 18.9619 24.4767C16.8994 23.8267 15.1744 22.3392 13.9869 20.5642C13.2619 19.4892 12.7619 18.2142 12.7119 16.9142C12.7869 16.1017 13.5369 15.6142 14.1244 15.1767Z" fill="#333333"/>
<path d="M20.3739 15.7911C21.0114 15.6161 21.6114 16.3786 21.3114 16.9536C21.0989 17.4911 20.3114 17.6161 19.9614 17.1661C19.5239 16.7411 19.7739 15.9161 20.3739 15.7911Z" fill="#537BFB"/>
<path d="M18.6619 17.3658C19.2994 17.0783 19.9869 17.8658 19.6994 18.4783C19.4994 19.0408 18.6869 19.1533 18.3119 18.7033C17.9244 18.2783 18.1494 17.5533 18.6619 17.3658Z" fill="#537BFB"/>
</svg>
