<svg width="26" height="26" viewBox="0 0 26 26" fill="none" xmlns="http://www.w3.org/2000/svg">
<path d="M22.0044 15.844C21.9307 16.07 21.852 16.296 21.7657 16.5169C21.7454 16.5676 21.7251 16.621 21.7022 16.6717C21.7454 16.5676 21.6844 16.7124 21.6717 16.7428C21.6184 16.8647 21.5626 16.984 21.5042 17.1034C21.2858 17.5477 21.037 17.9743 20.7551 18.3805C20.6866 18.4796 20.6155 18.5786 20.5419 18.6776C20.5266 18.6979 20.4251 18.8299 20.4911 18.7462C20.4454 18.802 20.4022 18.8604 20.3565 18.9163C20.1915 19.1194 20.0163 19.3149 19.836 19.5053C19.6659 19.6831 19.4881 19.8557 19.3053 20.0208C19.2088 20.1071 19.1124 20.1909 19.0133 20.2721C18.9702 20.3077 18.927 20.3458 18.8813 20.3813C18.8585 20.3991 18.8381 20.4169 18.8153 20.4346C18.8051 20.4423 18.6909 20.5286 18.7848 20.46C18.3938 20.7546 17.9876 21.0237 17.561 21.2598C17.3502 21.3766 17.137 21.4858 16.9186 21.5848C16.8628 21.6102 16.8069 21.6356 16.751 21.661C16.7256 21.6712 16.7003 21.6839 16.6749 21.694C16.6901 21.6864 16.7713 21.6534 16.6825 21.6915C16.5682 21.7372 16.454 21.7829 16.3397 21.826C15.8954 21.9911 15.4409 22.1231 14.9762 22.2247C14.7401 22.2755 14.5014 22.3186 14.2602 22.3516C14.2272 22.3567 14.179 22.3796 14.2754 22.3491C14.2526 22.3567 14.2196 22.3567 14.1942 22.3592C14.1333 22.3669 14.0749 22.3719 14.0139 22.3796C13.8946 22.3923 13.7727 22.4024 13.6534 22.41C13.1862 22.4405 12.7165 22.438 12.2467 22.4024C12.1401 22.3948 12.0335 22.3846 11.9268 22.3719C11.8735 22.3669 11.8202 22.3592 11.7669 22.3542C11.6348 22.3389 11.843 22.3669 11.7618 22.3542C11.7288 22.3491 11.6958 22.344 11.6628 22.3389C11.4241 22.3034 11.1854 22.2577 10.9467 22.2069C10.4846 22.1028 10.0301 21.9657 9.5858 21.7981C9.53502 21.7778 9.48423 21.76 9.43345 21.7397C9.40806 21.7296 9.38267 21.7194 9.35728 21.7092C9.35474 21.7092 9.23287 21.6559 9.30396 21.6864C9.3649 21.7143 9.28619 21.6788 9.27095 21.6712C9.24048 21.6585 9.20748 21.6432 9.17701 21.6305C9.12115 21.6051 9.06529 21.5798 9.00943 21.5544C8.79107 21.4528 8.57779 21.3411 8.36705 21.2217C8.14869 21.0999 7.93541 20.9678 7.72974 20.8282C7.6358 20.7647 7.54439 20.7012 7.45298 20.6378C7.4022 20.5997 7.35142 20.5641 7.30064 20.526C7.27779 20.5083 7.25494 20.493 7.23209 20.4753C7.18384 20.4397 7.29302 20.5235 7.21685 20.4651C6.81568 20.1452 6.43736 19.8024 6.08951 19.4292C5.91431 19.2438 5.74927 19.0508 5.58931 18.8528C5.57408 18.8325 5.46998 18.7005 5.53599 18.7868C5.49537 18.736 5.45728 18.6827 5.4192 18.6319C5.33795 18.5227 5.25923 18.411 5.18306 18.2993C4.90631 17.8905 4.66002 17.4614 4.44927 17.0145C4.40103 16.913 4.35533 16.8114 4.30963 16.7098C4.30963 16.7098 4.25631 16.5829 4.28677 16.6565C4.31216 16.7174 4.27916 16.6362 4.27154 16.621C4.24615 16.5575 4.22076 16.4915 4.19537 16.428C4.11158 16.2071 4.03287 15.9837 3.96431 15.7577C3.88052 15.4835 3.80943 15.2067 3.75103 14.9274C3.7231 14.7928 3.69517 14.6557 3.67232 14.5186C3.66216 14.4551 3.65201 14.3891 3.64185 14.3257C3.63677 14.2926 3.6317 14.2622 3.62916 14.2292C3.64439 14.3333 3.62408 14.1911 3.62154 14.1708C3.55298 13.5919 3.53521 13.0079 3.56822 12.4264C3.57584 12.2817 3.58853 12.1395 3.60123 11.9948C3.60631 11.9313 3.61392 11.8678 3.62154 11.8069C3.62408 11.7764 3.62916 11.7434 3.63423 11.713C3.62154 11.8221 3.64185 11.6698 3.64185 11.6596C3.68248 11.3854 3.7358 11.1112 3.79927 10.8421C3.91861 10.3393 4.07603 9.84421 4.269 9.36432C4.27916 9.33893 4.31724 9.25007 4.27408 9.35163C4.28423 9.32624 4.29693 9.30085 4.30709 9.27546C4.32994 9.22468 4.35279 9.17389 4.37564 9.12311C4.42896 9.00885 4.48228 8.8946 4.53814 8.78288C4.6524 8.5569 4.77427 8.33346 4.9063 8.11764C5.0358 7.90436 5.17037 7.69616 5.31509 7.49303C5.38619 7.39401 5.45728 7.29499 5.53345 7.1985C5.46998 7.28229 5.57154 7.15026 5.58677 7.12995C5.63248 7.07409 5.67818 7.01823 5.72388 6.96237C6.05142 6.57135 6.40689 6.20827 6.79029 5.87057C6.8817 5.79186 6.9731 5.71315 7.06705 5.63698C7.11529 5.59635 7.16607 5.55827 7.21685 5.51764C7.23209 5.50495 7.29302 5.45924 7.21431 5.52018C7.24732 5.49479 7.28287 5.4694 7.31588 5.44401C7.50631 5.30182 7.70181 5.16725 7.9024 5.03776C8.31373 4.7737 8.74791 4.54264 9.19478 4.34206C9.21763 4.3319 9.39791 4.25573 9.28111 4.30397C9.33189 4.28366 9.38267 4.26335 9.43345 4.24303C9.54771 4.19733 9.66197 4.15417 9.77623 4.11354C9.99966 4.03483 10.2256 3.9612 10.4542 3.89772C10.6827 3.83425 10.9112 3.77839 11.1422 3.73268C11.254 3.70983 11.3682 3.68952 11.4799 3.66921C11.5409 3.65905 11.5993 3.64889 11.6602 3.64128C11.6856 3.6362 11.7135 3.63366 11.7389 3.62858C11.876 3.60827 11.6272 3.64128 11.7643 3.62604C12.2239 3.57272 12.686 3.54479 13.1481 3.54987C13.3842 3.55241 13.6178 3.5651 13.8514 3.58542C13.9657 3.59557 14.0799 3.60573 14.1917 3.62096C14.217 3.6235 14.245 3.62604 14.2729 3.63112C14.1612 3.61081 14.2323 3.62604 14.2577 3.62858C14.3237 3.63874 14.3897 3.64889 14.4583 3.65905C14.9254 3.73522 15.385 3.84186 15.837 3.98405C16.0706 4.05768 16.3016 4.13893 16.5276 4.2278C16.5784 4.24811 16.6292 4.26842 16.6799 4.28874C16.7688 4.32428 16.6876 4.29128 16.6723 4.2862C16.6977 4.29635 16.7231 4.30905 16.7485 4.31921C16.8678 4.37253 16.9846 4.42585 17.1014 4.48424C17.5381 4.69753 17.9571 4.94128 18.3557 5.21296C18.4547 5.28151 18.5512 5.35007 18.6477 5.42116C18.6934 5.45417 18.7391 5.48971 18.7823 5.52272C18.6985 5.45925 18.7772 5.51764 18.7975 5.53542C18.8254 5.55827 18.8534 5.57858 18.8813 5.60143C19.0819 5.76393 19.2749 5.93151 19.4627 6.10924C19.8335 6.45964 20.1762 6.83796 20.4936 7.23913C20.4301 7.16042 20.5241 7.27975 20.5444 7.30768C20.5825 7.35846 20.6206 7.41178 20.6586 7.4651C20.7348 7.56921 20.8059 7.67585 20.877 7.78249C21.0141 7.99069 21.1436 8.20143 21.2629 8.41725C21.3848 8.63815 21.4991 8.86413 21.6057 9.09264C21.6286 9.14343 21.6514 9.19421 21.6743 9.24499C21.6895 9.28053 21.7454 9.4151 21.7047 9.31608C21.753 9.43288 21.7987 9.54714 21.8419 9.66647C22.0247 10.1565 22.1669 10.6618 22.2684 11.1772C22.2938 11.3092 22.3192 11.4387 22.3395 11.5708C22.3497 11.6317 22.3573 11.6952 22.3674 11.7561C22.3547 11.6622 22.3649 11.7434 22.3674 11.7612C22.3725 11.8069 22.3776 11.8551 22.3827 11.9008C22.4131 12.1725 22.4309 12.4467 22.4385 12.721C22.4461 12.9952 22.4436 13.2694 22.4284 13.5436C22.4208 13.6757 22.4106 13.8102 22.3979 13.9423C22.3903 14.0133 22.3827 14.0819 22.3751 14.153C22.3725 14.1835 22.3674 14.2165 22.3649 14.2469C22.3522 14.3587 22.3776 14.1758 22.3573 14.2977C22.2786 14.8106 22.1643 15.3311 22.0044 15.844C21.9256 16.0979 22.0983 16.4102 22.3598 16.4686C22.6366 16.5321 22.9006 16.3848 22.9844 16.1132C23.6725 13.9118 23.6167 11.4794 22.8016 9.32116C22.0323 7.28737 20.651 5.53542 18.8534 4.31159C17.1725 3.16647 15.1438 2.5444 13.11 2.52409C11.0813 2.50124 9.04498 3.08014 7.34127 4.18464C5.51568 5.36784 4.10142 7.0944 3.28638 9.10788C2.40025 11.2991 2.30631 13.8102 3.00455 16.0674C3.6317 18.0911 4.87584 19.9116 6.55162 21.2141C8.20709 22.5014 10.1952 23.2682 12.2874 23.4155C14.2983 23.5602 16.3473 23.0956 18.1069 22.113C19.9604 21.077 21.4991 19.4546 22.4157 17.5376C22.6366 17.0755 22.8245 16.5981 22.9819 16.1106C23.0631 15.8567 22.8854 15.5444 22.6264 15.486C22.3522 15.4251 22.0907 15.5723 22.0044 15.844Z" fill="black"/>
<path d="M13.3301 22.5759C13.2133 22.4439 13.0991 22.3068 12.9848 22.1697C12.9391 22.1138 12.8909 22.0554 12.8452 21.997C12.8172 21.9615 12.7919 21.9284 12.7639 21.8929C12.7284 21.8472 12.7284 21.8472 12.7614 21.8904C12.7436 21.8675 12.7258 21.8447 12.7081 21.8218C12.4973 21.5451 12.2967 21.2581 12.1038 20.9661C11.7356 20.4025 11.403 19.8134 11.1135 19.2066C11.0475 19.0644 10.9815 18.9247 10.918 18.78C10.9003 18.7419 10.885 18.7013 10.8672 18.6632C10.8114 18.5337 10.9053 18.7597 10.852 18.6277C10.8139 18.5363 10.7758 18.4449 10.7403 18.3535C10.621 18.0513 10.5143 17.7466 10.4153 17.4368C10.2096 16.7894 10.0471 16.1267 9.92779 15.4564C9.89733 15.2786 9.8694 15.1009 9.84401 14.9232C9.85924 15.0324 9.83639 14.8724 9.83639 14.8648C9.83131 14.8165 9.82369 14.7683 9.81861 14.7201C9.80846 14.6236 9.7983 14.5245 9.78815 14.4281C9.75006 14.0396 9.72975 13.646 9.72213 13.255C9.71451 12.8792 9.72213 12.506 9.74244 12.1302C9.7526 11.9347 9.76783 11.7392 9.78561 11.5437C9.79322 11.4624 9.80084 11.3812 9.811 11.2999C9.81608 11.2517 9.82115 11.2034 9.82877 11.1552C9.83131 11.1374 9.8567 10.9419 9.84147 11.046C9.93541 10.3605 10.0776 9.68255 10.2655 9.01478C10.3569 8.68978 10.4585 8.36732 10.5727 8.04993C10.626 7.90267 10.6794 7.75794 10.7352 7.61321C10.7657 7.5345 10.7987 7.45579 10.8292 7.37708C10.8368 7.36185 10.8901 7.22982 10.8444 7.34154C10.8672 7.28822 10.8901 7.23743 10.913 7.18411C11.2176 6.48841 11.5731 5.8181 11.9794 5.17825C12.1825 4.85833 12.3958 4.54857 12.6217 4.24388C12.6471 4.20833 12.6751 4.17279 12.7005 4.13978C12.7182 4.11693 12.736 4.09407 12.7538 4.06868C12.7182 4.11439 12.7208 4.11185 12.7563 4.06614C12.8122 3.99759 12.8655 3.9265 12.9213 3.85794C13.0508 3.69798 13.1854 3.54056 13.3225 3.38314C13.4977 3.18255 13.5333 2.85755 13.3225 2.66458C13.1296 2.48939 12.7919 2.4513 12.604 2.66458C10.7251 4.80247 9.43522 7.43294 8.94772 10.2386C8.41705 13.2829 8.79029 16.4161 10.0217 19.2497C10.6616 20.7224 11.5452 22.0808 12.604 23.2868C12.7792 23.4874 13.1448 23.4798 13.3225 23.2868C13.5256 23.0812 13.518 22.7892 13.3301 22.5759Z" fill="black"/>
<path d="M3.50436 10.513C3.67448 10.513 3.84206 10.513 4.01218 10.513C4.47175 10.513 4.93386 10.513 5.39343 10.513C6.07389 10.513 6.75436 10.513 7.43483 10.513C8.26511 10.513 9.09538 10.513 9.92819 10.513C10.8372 10.513 11.7487 10.513 12.6577 10.513C13.5768 10.513 14.496 10.513 15.4151 10.513C16.2708 10.513 17.129 10.513 17.9846 10.513C18.7083 10.513 19.4344 10.513 20.1581 10.513C20.6786 10.513 21.2016 10.513 21.7221 10.513C21.9684 10.513 22.2173 10.5181 22.4635 10.513C22.4737 10.513 22.4864 10.513 22.4966 10.513C22.7632 10.513 23.0171 10.2794 23.0044 10.0052C22.9917 9.73097 22.7809 9.49737 22.4966 9.49737C22.3264 9.49737 22.1589 9.49737 21.9887 9.49737C21.5292 9.49737 21.0671 9.49737 20.6075 9.49737C19.927 9.49737 19.2466 9.49737 18.5661 9.49737C17.7358 9.49737 16.9055 9.49737 16.0727 9.49737C15.1637 9.49737 14.2522 9.49737 13.3432 9.49737C12.4241 9.49737 11.5049 9.49737 10.5858 9.49737C9.73014 9.49737 8.87194 9.49737 8.01628 9.49737C7.29264 9.49737 6.56647 9.49737 5.84284 9.49737C5.32233 9.49737 4.79929 9.49737 4.27878 9.49737C4.03249 9.49737 3.78366 9.4923 3.53737 9.49737C3.52721 9.49737 3.51452 9.49737 3.50436 9.49737C3.23776 9.49737 2.98386 9.73097 2.99655 10.0052C3.00925 10.2794 3.21999 10.513 3.50436 10.513Z" fill="black"/>
<path d="M22.4966 15.4896C22.3264 15.4896 22.1589 15.4896 21.9887 15.4896C21.5292 15.4896 21.0671 15.4896 20.6075 15.4896C19.927 15.4896 19.2466 15.4896 18.5661 15.4896C17.7358 15.4896 16.9055 15.4896 16.0727 15.4896C15.1637 15.4896 14.2522 15.4896 13.3432 15.4896C12.4241 15.4896 11.5049 15.4896 10.5858 15.4896C9.73014 15.4896 8.87194 15.4896 8.01628 15.4896C7.29264 15.4896 6.56647 15.4896 5.84284 15.4896C5.32233 15.4896 4.79929 15.4896 4.27878 15.4896C4.03249 15.4896 3.78366 15.4845 3.53737 15.4896C3.52721 15.4896 3.51452 15.4896 3.50436 15.4896C3.23776 15.4896 2.98386 15.7232 2.99655 15.9974C3.00925 16.2716 3.21999 16.5052 3.50436 16.5052C3.67448 16.5052 3.84206 16.5052 4.01218 16.5052C4.47175 16.5052 4.93386 16.5052 5.39343 16.5052C6.07389 16.5052 6.75436 16.5052 7.43483 16.5052C8.26511 16.5052 9.09538 16.5052 9.92819 16.5052C10.8372 16.5052 11.7487 16.5052 12.6577 16.5052C13.5768 16.5052 14.496 16.5052 15.4151 16.5052C16.2708 16.5052 17.129 16.5052 17.9846 16.5052C18.7083 16.5052 19.4344 16.5052 20.1581 16.5052C20.6786 16.5052 21.2016 16.5052 21.7221 16.5052C21.9684 16.5052 22.2173 16.5103 22.4635 16.5052C22.4737 16.5052 22.4864 16.5052 22.4966 16.5052C22.7632 16.5052 23.0171 16.2716 23.0044 15.9974C22.9917 15.7232 22.7809 15.4896 22.4966 15.4896Z" fill="black"/>
<path d="M12.6704 3.38978C12.7872 3.52435 12.9015 3.65892 13.0157 3.79603C13.0665 3.85951 13.1173 3.92045 13.1681 3.98392C13.1909 4.01185 13.2138 4.04232 13.2366 4.07025C13.2722 4.11596 13.2722 4.11596 13.2392 4.07279C13.2569 4.09564 13.2747 4.1185 13.2925 4.14389C13.5032 4.42318 13.7064 4.70756 13.8968 4.99955C14.265 5.56322 14.5976 6.15228 14.887 6.76166C14.9607 6.91654 15.0318 7.07143 15.0978 7.22631C15.1079 7.2517 15.1206 7.27963 15.1308 7.30502C15.1866 7.43705 15.0927 7.20853 15.146 7.34057C15.1841 7.43197 15.2222 7.52338 15.2577 7.61732C15.3821 7.93217 15.4939 8.25209 15.5954 8.57455C15.796 9.21185 15.9534 9.85932 16.0677 10.5169C16.0982 10.6947 16.1261 10.8724 16.1515 11.0501C16.1362 10.941 16.1566 11.1009 16.1591 11.1085C16.1642 11.1568 16.1718 11.205 16.1769 11.2533C16.1896 11.3675 16.2023 11.4792 16.2124 11.5935C16.248 11.9667 16.2683 12.3425 16.2734 12.7158C16.281 13.1068 16.2708 13.4978 16.248 13.8888C16.2378 14.0691 16.2226 14.2468 16.2073 14.4245C16.1972 14.521 16.187 14.6201 16.1769 14.7165C16.1718 14.7648 16.1642 14.813 16.1591 14.8613C16.154 14.8943 16.1515 14.9273 16.1464 14.9578C16.154 14.9044 16.154 14.907 16.1439 14.9679C16.0423 15.6509 15.9052 16.3263 15.7148 16.989C15.6234 17.314 15.5193 17.6365 15.405 17.9538C15.3517 18.1011 15.2984 18.2458 15.24 18.3906C15.2095 18.4693 15.1765 18.548 15.1435 18.6267C15.0901 18.7587 15.1841 18.5302 15.1282 18.6622C15.1105 18.7003 15.0952 18.741 15.0775 18.779C14.7728 19.4722 14.4173 20.1425 14.011 20.7824C13.8003 21.1124 13.5794 21.4374 13.3433 21.7497C13.3179 21.7853 13.29 21.8208 13.2646 21.8538C13.229 21.8995 13.229 21.8995 13.2646 21.8564C13.2468 21.8792 13.229 21.9021 13.2112 21.9249C13.1579 21.9935 13.1021 22.062 13.0462 22.1306C12.9167 22.2906 12.7821 22.448 12.645 22.6029C12.4698 22.8009 12.4343 23.1285 12.645 23.3214C12.838 23.4992 13.1757 23.5347 13.3636 23.3214C15.2603 21.1886 16.5552 18.5353 17.0478 15.722C17.581 12.6777 17.2077 9.54193 15.9763 6.70834C15.3364 5.23314 14.4528 3.87475 13.3915 2.66615C13.2163 2.46557 12.8507 2.47318 12.673 2.66615C12.4749 2.88705 12.4825 3.1765 12.6704 3.38978Z" fill="black"/>
</svg>
