<svg width="267" height="94" viewBox="0 0 267 94" fill="none" xmlns="http://www.w3.org/2000/svg">
<path d="M66.1262 28.6719L54.6884 15.496L54.7102 15.4792L41.1987 -0.000244141L36.1128 5.87994C36.1056 5.88831 36.0983 5.89669 36.091 5.89669C36.0837 5.91344 36.0837 5.92182 36.0765 5.93019L30.9542 11.8439L43.5052 26.2177H14.8015V42.8865H22.0411C22.0993 42.8949 22.1502 42.9201 22.2085 42.9201H61.004C63.9362 42.9201 66.5773 40.893 67.7051 37.7686C68.8256 34.6526 68.1999 31.0592 66.1262 28.6719Z" fill="#537BFB"/>
<path d="M2.12517 64.9824L13.5703 78.1584L13.5484 78.1835L27.0526 93.663L32.1386 87.7744C32.1458 87.766 32.1531 87.766 32.1604 87.7577C32.1677 87.7493 32.1677 87.7325 32.1749 87.7242L37.2899 81.8021L24.7462 67.4283H53.4499V50.7594H46.2176C46.1521 50.7594 46.1084 50.7175 46.0429 50.7175H7.24746C4.31524 50.7175 1.67406 52.7614 0.546287 55.869C-0.566936 58.9933 0.0515214 62.5952 2.12517 64.9824Z" fill="#F98F18"/>
<path d="M75.3889 40.0112L69.0151 11.6406H71.2416L76.7277 36.1163L82.1774 11.6406L84.9641 11.6406L90.3337 36.0911L95.878 11.6406H98.0463L91.5707 40.0112H89.0895L83.5234 14.7985L77.8336 40.0112H75.3889Z" fill="black"/>
<path d="M102.269 25.8463C102.269 29.7245 103.069 32.7986 104.67 35.0602C106.278 37.3302 108.453 38.461 111.197 38.461C113.954 38.461 116.144 37.3302 117.759 35.0686C119.375 32.807 120.182 29.7329 120.182 25.8463C120.182 21.9429 119.375 18.852 117.759 16.5821C116.144 14.3121 113.954 13.1729 111.197 13.1729C108.49 13.1729 106.322 14.3204 104.699 16.6072C103.077 18.9023 102.269 21.9848 102.269 25.8463ZM99.926 25.8463C99.926 21.2477 100.945 17.6123 102.975 14.9235C105.005 12.2431 107.748 10.8945 111.204 10.8945C114.674 10.8945 117.425 12.2347 119.462 14.9235C121.499 17.604 122.518 21.2477 122.518 25.8463C122.518 30.4449 121.499 34.0886 119.462 36.769C117.425 39.4494 114.674 40.798 111.204 40.798C107.748 40.798 105.005 39.4494 102.975 36.769C100.945 34.0886 99.926 30.4449 99.926 25.8463Z" fill="black"/>
<path d="M129.188 24.9841H135.729C138.029 24.9841 139.68 24.5318 140.692 23.6355C141.703 22.7309 142.205 21.2818 142.205 19.2715C142.205 18.3417 142.052 17.5124 141.725 16.7669C141.405 16.0214 140.954 15.4183 140.364 14.9744C139.906 14.6142 139.36 14.3546 138.727 14.2038C138.094 14.053 137.054 13.9776 135.598 13.9776H134.645H129.188V24.9841ZM126.926 40.0112V11.6406H135.14C137.046 11.6406 138.429 11.7328 139.28 11.917C140.131 12.0929 140.874 12.3861 141.514 12.7966C142.482 13.4332 143.231 14.3043 143.748 15.41C144.271 16.524 144.541 17.7888 144.541 19.1961C144.541 20.9467 144.199 22.4126 143.515 23.6104C142.838 24.7998 141.849 25.6626 140.553 26.1736C141.558 26.5589 142.271 27.1452 142.714 27.941C143.144 28.7367 143.457 30.345 143.638 32.7573L143.951 37.0125C144.002 37.6826 144.082 38.2271 144.221 38.6627C144.359 39.0982 144.533 39.4165 144.744 39.6259V40.0112H142.234C142.096 39.7181 141.987 39.3244 141.892 38.8553C141.805 38.3779 141.739 37.7915 141.696 37.1047L141.405 33.3521C141.237 30.7554 140.837 29.1053 140.197 28.3933C139.557 27.6813 138.283 27.3211 136.362 27.3211H129.167V40.0112H126.926Z" fill="black"/>
<path d="M149.104 40.0112V11.6406H151.432V37.6826H164.012V40.0112H149.104Z" fill="black"/>
<path d="M169.176 37.6826H173.949C175.812 37.6826 177.173 37.6072 178.024 37.4397C178.89 37.2806 179.603 37.0125 180.163 36.6188C181.407 35.7645 182.346 34.441 182.957 32.6903C183.568 30.9229 183.881 28.6446 183.881 25.8553C183.881 23.2 183.583 20.9886 182.993 19.2212C182.397 17.4538 181.516 16.122 180.345 15.2424C179.741 14.7817 179.006 14.4551 178.133 14.2624C177.253 14.0698 175.768 13.9776 173.687 13.9776H173.149H169.169V37.6826H169.176ZM172.705 11.6406H174.379C176.401 11.6406 177.929 11.7579 178.941 12.0092C179.959 12.2521 180.832 12.6458 181.567 13.1819C183.081 14.2875 184.245 15.9126 185.038 18.0653C185.838 20.218 186.231 22.7895 186.231 25.7799C186.231 29.0048 185.795 31.7103 184.929 33.9049C184.063 36.0995 182.768 37.7245 181.058 38.7967C180.345 39.2406 179.472 39.5506 178.431 39.7348C177.398 39.9191 175.805 40.0196 173.68 40.0196H166.906V11.6406H172.705Z" fill="black"/>
<path d="M208.067 30.7409H210.294C210.097 33.882 209.144 36.3447 207.405 38.1288C205.666 39.913 203.345 40.8009 200.449 40.8009C197.139 40.8009 194.527 39.4607 192.606 36.7886C190.692 34.1166 189.725 30.4477 189.725 25.7821C189.725 21.1584 190.692 17.5231 192.628 14.8761C194.563 12.2292 197.19 10.9058 200.515 10.9058C203.302 10.9058 205.564 11.7266 207.282 13.36C209.006 14.9934 209.93 17.188 210.054 19.9354H207.827C207.631 17.8581 206.889 16.2164 205.586 15.0102C204.277 13.8123 202.589 13.2093 200.515 13.2093C197.845 13.2093 195.771 14.3066 194.287 16.5012C192.802 18.6957 192.06 21.7615 192.06 25.7319C192.06 29.7274 192.817 32.8517 194.33 35.1134C195.844 37.375 197.932 38.4974 200.595 38.4974C202.77 38.4974 204.517 37.8105 205.841 36.4368C207.172 35.0715 207.907 33.17 208.067 30.7409Z" fill="black"/>
<path d="M215.901 25.8463C215.901 29.7245 216.702 32.7986 218.31 35.0602C219.918 37.3302 222.093 38.461 224.836 38.461C227.586 38.461 229.776 37.3302 231.392 35.0686C233.007 32.807 233.815 29.7329 233.815 25.8463C233.815 21.9429 233.007 18.852 231.392 16.5821C229.776 14.3121 227.586 13.1729 224.836 13.1729C222.129 13.1729 219.961 14.3204 218.339 16.6072C216.709 18.9023 215.901 21.9848 215.901 25.8463ZM213.558 25.8463C213.558 21.2477 214.577 17.6123 216.607 14.9235C218.637 12.2431 221.38 10.8945 224.843 10.8945C228.314 10.8945 231.064 12.2347 233.102 14.9235C235.139 17.604 236.158 21.2477 236.158 25.8463C236.158 30.4449 235.139 34.0886 233.102 36.769C231.064 39.4494 228.314 40.798 224.843 40.798C221.387 40.798 218.637 39.4494 216.607 36.769C214.57 34.0886 213.558 30.4449 213.558 25.8463Z" fill="black"/>
<path d="M240.532 40.0112V11.6406H243.712L251.846 36.6105L259.813 11.6406H263V40.0112H260.81V15.276L252.894 40.0112H250.806L242.758 15.276V40.0112H240.532Z" fill="black"/>
<path d="M69.0151 81.78V47.1355H90.6102V54.3308H76.6767V61.5093H88.7694V68.6794H76.6767V81.78H69.0151Z" fill="black"/>
<path d="M103.316 47.1475H95.6401V81.792H103.316V47.1475Z" fill="black"/>
<path d="M110.344 81.78V47.1355H118.675L124.35 58.5189C125.282 60.3701 126.155 62.2045 126.984 64.0222C127.814 65.8398 128.6 67.6407 129.335 69.4082C129.225 66.7947 129.138 64.3405 129.087 62.0454C129.036 59.7586 129.007 57.7399 129.007 56.006V47.1355H136.443V81.78H128.127L122.226 70.0699C121.527 68.6962 120.771 67.1465 119.949 65.4294C119.134 63.7122 118.275 61.8527 117.358 59.8675C117.511 62.1207 117.613 64.2232 117.686 66.1665C117.751 68.1098 117.788 69.8353 117.788 71.3431V81.78H110.344Z" fill="black"/>
<path d="M151.937 68.2642H158.507L155.16 56.3279L151.937 68.2642ZM151.224 47.1475H159.635L170.258 81.792H161.985L160.144 75.4427H150.096L148.386 81.792H140.397L151.224 47.1475Z" fill="black"/>
<path d="M174.159 81.78V47.1355H182.49L188.165 58.5189C189.097 60.3701 189.97 62.2045 190.799 64.0222C191.629 65.8398 192.414 67.6407 193.149 69.4082C193.04 66.7947 192.96 64.3405 192.902 62.0454C192.851 59.7586 192.822 57.7399 192.822 56.006V47.1355H200.258V81.78H191.949L186.048 70.0699C185.349 68.6962 184.593 67.1465 183.778 65.4294C182.963 63.7122 182.097 61.8527 181.18 59.8675C181.333 62.1207 181.435 64.2232 181.508 66.1665C181.58 68.1098 181.61 69.8353 181.61 71.3431V81.78H174.159Z" fill="black"/>
<path d="M233.845 69.642C233.328 73.7967 231.909 77.0216 229.588 79.2999C227.267 81.595 224.269 82.7342 220.588 82.7342C216.193 82.7342 212.642 81.0841 209.943 77.7754C207.244 74.4668 205.905 70.1195 205.905 64.7251C205.905 59.1214 207.273 54.64 210.016 51.2979C212.759 47.9557 216.433 46.2888 221.032 46.2888C224.691 46.2888 227.66 47.3945 229.974 49.6058C232.28 51.8172 233.597 54.8327 233.925 58.6607H226.692C226.336 56.9938 225.666 55.7457 224.677 54.9081C223.695 54.0621 222.399 53.6516 220.791 53.6516C218.638 53.6516 216.935 54.6316 215.684 56.5917C214.432 58.5518 213.806 61.2238 213.806 64.633C213.806 68.017 214.396 70.6472 215.589 72.5235C216.768 74.3914 218.434 75.3295 220.588 75.3295C222.319 75.3295 223.709 74.8437 224.75 73.8721C225.79 72.9004 226.438 71.4932 226.7 69.642H233.845Z" fill="black"/>
<path d="M239.288 81.78V47.1355H262.142V54.247H246.993V60.3617H260.839V67.2973H246.993V74.702H262.637V81.78H239.288Z" fill="black"/>
</svg>
